<?xml version="1.0" encoding="UTF-8" standalone="no"?>
<!DOCTYPE svg PUBLIC "-//W3C//DTD SVG 1.1//EN"
 "http://www.w3.org/Graphics/SVG/1.1/DTD/svg11.dtd">
<!-- Generated by graphviz version 12.0.0 (0)
 -->
<!-- Title: mongraphe Pages: 1 -->
<svg width="125pt" height="221pt"
 viewBox="0.00 0.00 125.00 221.00" xmlns="http://www.w3.org/2000/svg" xmlns:xlink="http://www.w3.org/1999/xlink">
<g id="graph0" class="graph" transform="scale(1 1) rotate(0) translate(4 217)">
<title>mongraphe</title>
<polygon fill="white" stroke="none" points="-4,4 -4,-217 121,-217 121,4 -4,4"/>
<!-- A -->
<g id="node1" class="node">
<title>A</title>
<ellipse fill="none" stroke="black" cx="90" cy="-195" rx="27" ry="18"/>
<text text-anchor="middle" x="90" y="-189.95" font-family="Times New Roman,serif" font-size="14.00">A</text>
</g>
<!-- B -->
<g id="node2" class="node">
<title>B</title>
<ellipse fill="none" stroke="red" cx="27" cy="-106.5" rx="27" ry="18"/>
<text text-anchor="middle" x="27" y="-101.45" font-family="Times New Roman,serif" font-size="14.00" fill="red">B</text>
</g>
<!-- A&#45;&gt;B -->
<g id="edge1" class="edge">
<title>A&#45;&gt;B</title>
<path fill="none" stroke="black" d="M78.74,-178.54C69.39,-165.7 55.92,-147.2 45.06,-132.3"/>
<polygon fill="black" stroke="black" points="47.99,-130.37 39.27,-124.35 42.33,-134.49 47.99,-130.37"/>
<text text-anchor="middle" x="68.38" y="-145.7" font-family="Times New Roman,serif" font-size="14.00">5</text>
</g>
<!-- C -->
<g id="node3" class="node">
<title>C</title>
<ellipse fill="none" stroke="red" cx="90" cy="-18" rx="27" ry="18"/>
<text text-anchor="middle" x="90" y="-12.95" font-family="Times New Roman,serif" font-size="14.00" fill="red">C</text>
</g>
<!-- A&#45;&gt;C -->
<g id="edge2" class="edge">
<title>A&#45;&gt;C</title>
<path fill="none" stroke="black" d="M90,-176.58C90,-146.44 90,-84.3 90,-47.7"/>
<polygon fill="black" stroke="black" points="93.5,-47.86 90,-37.86 86.5,-47.86 93.5,-47.86"/>
<text text-anchor="middle" x="93.38" y="-101.45" font-family="Times New Roman,serif" font-size="14.00">1</text>
</g>
<!-- B&#45;&gt;C -->
<g id="edge4" class="edge">
<title>B&#45;&gt;C</title>
<path fill="none" stroke="red" d="M38.26,-90.04C47.61,-77.2 61.08,-58.7 71.94,-43.8"/>
<polygon fill="red" stroke="red" points="74.67,-45.99 77.73,-35.85 69.01,-41.87 74.67,-45.99"/>
<text text-anchor="middle" x="68.38" y="-57.2" font-family="Times New Roman,serif" font-size="14.00">3</text>
</g>
<!-- C&#45;&gt;A -->
<g id="edge3" class="edge">
<title>C&#45;&gt;A</title>
<path fill="none" stroke="black" d="M98.03,-35.34C100.45,-41.1 102.79,-47.7 104,-54 112.83,-99.82 112.83,-113.18 104,-159 103.49,-161.66 102.78,-164.37 101.94,-167.05"/>
<polygon fill="black" stroke="black" points="98.73,-165.64 98.55,-176.24 105.3,-168.07 98.73,-165.64"/>
<text text-anchor="middle" x="113.38" y="-101.45" font-family="Times New Roman,serif" font-size="14.00">2</text>
</g>
</g>
</svg>