<?xml version="1.0" encoding="UTF-8" standalone="no"?>
<!DOCTYPE svg PUBLIC "-//W3C//DTD SVG 1.1//EN"
 "http://www.w3.org/Graphics/SVG/1.1/DTD/svg11.dtd">
<!-- Generated by graphviz version 12.0.0 (0)
 -->
<!-- Title: graphe_demo Pages: 1 -->
<svg width="745pt" height="359pt"
 viewBox="0.00 0.00 744.50 359.38" xmlns="http://www.w3.org/2000/svg" xmlns:xlink="http://www.w3.org/1999/xlink">
<g id="graph0" class="graph" transform="scale(1 1) rotate(0) translate(4 355.38)">
<title>graphe_demo</title>
<polygon fill="white" stroke="none" points="-4,4 -4,-355.38 740.5,-355.38 740.5,4 -4,4"/>
<!-- A -->
<g id="node1" class="node">
<title>A</title>
<ellipse fill="none" stroke="black" cx="27" cy="-115.63" rx="27" ry="18"/>
<text text-anchor="middle" x="27" y="-110.21" font-family="Helvetica,sans-Serif" font-size="14.00">A</text>
</g>
<!-- A&#45;&gt;A -->
<g id="edge1" class="edge">
<title>A&#45;&gt;A</title>
<path fill="none" stroke="black" d="M18.3,-133.04C16.67,-142.72 19.57,-151.63 27,-151.63 31.29,-151.63 34.07,-148.66 35.34,-144.27"/>
<polygon fill="black" stroke="black" points="38.83,-144.66 35.65,-134.56 31.84,-144.44 38.83,-144.66"/>
<text text-anchor="middle" x="27" y="-154.08" font-family="Helvetica,sans-Serif" font-size="14.00">2</text>
</g>
<!-- B -->
<g id="node2" class="node">
<title>B</title>
<ellipse fill="none" stroke="black" cx="124.5" cy="-214.63" rx="27" ry="18"/>
<text text-anchor="middle" x="124.5" y="-209.21" font-family="Helvetica,sans-Serif" font-size="14.00">B</text>
</g>
<!-- A&#45;&gt;B -->
<g id="edge2" class="edge">
<title>A&#45;&gt;B</title>
<path fill="none" stroke="black" d="M42.5,-130.67C58.07,-146.81 82.99,-172.64 101.09,-191.4"/>
<polygon fill="black" stroke="black" points="98.35,-193.6 107.81,-198.37 103.38,-188.74 98.35,-193.6"/>
<text text-anchor="middle" x="75.75" y="-170.08" font-family="Helvetica,sans-Serif" font-size="14.00">5</text>
</g>
<!-- C -->
<g id="node3" class="node">
<title>C</title>
<ellipse fill="none" stroke="black" cx="222" cy="-189.63" rx="27" ry="18"/>
<text text-anchor="middle" x="222" y="-184.21" font-family="Helvetica,sans-Serif" font-size="14.00">C</text>
</g>
<!-- A&#45;&gt;C -->
<g id="edge3" class="edge">
<title>A&#45;&gt;C</title>
<path fill="none" stroke="black" d="M51.38,-123.82C80.84,-134.24 132.97,-153.02 177,-170.63 180.86,-172.18 184.88,-173.84 188.87,-175.52"/>
<polygon fill="black" stroke="black" points="187.2,-178.62 197.77,-179.33 189.96,-172.18 187.2,-178.62"/>
<text text-anchor="middle" x="124.5" y="-162.08" font-family="Helvetica,sans-Serif" font-size="14.00">8</text>
</g>
<!-- B&#45;&gt;C -->
<g id="edge4" class="edge">
<title>B&#45;&gt;C</title>
<path fill="none" stroke="black" d="M138.44,-199.11C146.42,-190.79 157.42,-181.36 169.5,-176.88 175.81,-174.55 182.71,-174.58 189.35,-175.83"/>
<polygon fill="black" stroke="black" points="188.1,-179.11 198.67,-178.44 189.99,-172.37 188.1,-179.11"/>
<text text-anchor="middle" x="173.25" y="-179.08" font-family="Helvetica,sans-Serif" font-size="14.00">6</text>
</g>
<!-- D -->
<g id="node4" class="node">
<title>D</title>
<ellipse fill="none" stroke="black" cx="417" cy="-180.63" rx="27" ry="18"/>
<text text-anchor="middle" x="417" y="-175.21" font-family="Helvetica,sans-Serif" font-size="14.00">D</text>
</g>
<!-- B&#45;&gt;D -->
<g id="edge5" class="edge">
<title>B&#45;&gt;D</title>
<path fill="none" stroke="black" d="M150.52,-219.99C156.7,-221.09 163.31,-222.08 169.5,-222.63 172.82,-222.93 173.67,-222.77 177,-222.63 252.65,-219.49 272.71,-222.59 346.5,-205.63 358.72,-202.83 371.74,-198.52 383.17,-194.27"/>
<polygon fill="black" stroke="black" points="384.08,-197.66 392.15,-190.8 381.56,-191.13 384.08,-197.66"/>
<text text-anchor="middle" x="270.75" y="-221.08" font-family="Helvetica,sans-Serif" font-size="14.00">8</text>
</g>
<!-- E -->
<g id="node5" class="node">
<title>E</title>
<ellipse fill="none" stroke="black" cx="319.5" cy="-115.63" rx="27" ry="18"/>
<text text-anchor="middle" x="319.5" y="-110.21" font-family="Helvetica,sans-Serif" font-size="14.00">E</text>
</g>
<!-- B&#45;&gt;E -->
<g id="edge6" class="edge">
<title>B&#45;&gt;E</title>
<path fill="none" stroke="black" d="M137.5,-198.64C150.1,-183.02 171.33,-159.78 195,-146.88 221.95,-132.2 255.96,-124.26 281.47,-120.06"/>
<polygon fill="black" stroke="black" points="281.67,-123.57 291.04,-118.61 280.63,-116.64 281.67,-123.57"/>
<text text-anchor="middle" x="222" y="-149.08" font-family="Helvetica,sans-Serif" font-size="14.00">6</text>
</g>
<!-- C&#45;&gt;B -->
<g id="edge7" class="edge">
<title>C&#45;&gt;B</title>
<path fill="none" stroke="black" d="M196.49,-196.05C185.7,-198.88 172.81,-202.25 160.99,-205.34"/>
<polygon fill="black" stroke="black" points="160.35,-201.89 151.56,-207.81 162.12,-208.67 160.35,-201.89"/>
<text text-anchor="middle" x="173.25" y="-205.08" font-family="Helvetica,sans-Serif" font-size="14.00">2</text>
</g>
<!-- C&#45;&gt;D -->
<g id="edge8" class="edge">
<title>C&#45;&gt;D</title>
<path fill="none" stroke="black" d="M249.43,-188.4C282.83,-186.84 340.53,-184.15 378.48,-182.38"/>
<polygon fill="black" stroke="black" points="378.24,-185.9 388.07,-181.94 377.91,-178.91 378.24,-185.9"/>
<text text-anchor="middle" x="319.5" y="-188.08" font-family="Helvetica,sans-Serif" font-size="14.00">1</text>
</g>
<!-- C&#45;&gt;E -->
<g id="edge9" class="edge">
<title>C&#45;&gt;E</title>
<path fill="none" stroke="black" d="M240.52,-176.06C255.06,-164.8 275.95,-148.61 292.45,-135.82"/>
<polygon fill="black" stroke="black" points="294.14,-138.94 299.9,-130.05 289.85,-133.41 294.14,-138.94"/>
<text text-anchor="middle" x="270.75" y="-157.08" font-family="Helvetica,sans-Serif" font-size="14.00">2</text>
</g>
<!-- D&#45;&gt;E -->
<g id="edge10" class="edge">
<title>D&#45;&gt;E</title>
<path fill="none" stroke="black" d="M395.6,-169.09C386,-163.47 374.49,-156.47 364.5,-149.63 358.43,-145.49 352.09,-140.8 346.16,-136.26"/>
<polygon fill="black" stroke="black" points="348.52,-133.67 338.49,-130.28 344.22,-139.19 348.52,-133.67"/>
<text text-anchor="middle" x="368.25" y="-156.08" font-family="Helvetica,sans-Serif" font-size="14.00">3</text>
</g>
<!-- F -->
<g id="node6" class="node">
<title>F</title>
<ellipse fill="none" stroke="black" cx="514.5" cy="-176.63" rx="27" ry="18"/>
<text text-anchor="middle" x="514.5" y="-171.21" font-family="Helvetica,sans-Serif" font-size="14.00">F</text>
</g>
<!-- D&#45;&gt;F -->
<g id="edge11" class="edge">
<title>D&#45;&gt;F</title>
<path fill="none" stroke="black" d="M443.68,-184.32C451.93,-185.05 461.1,-185.39 469.5,-184.63 472.01,-184.41 474.6,-184.11 477.19,-183.76"/>
<polygon fill="black" stroke="black" points="477.65,-187.23 486.98,-182.22 476.56,-180.32 477.65,-187.23"/>
<text text-anchor="middle" x="465.75" y="-187.08" font-family="Helvetica,sans-Serif" font-size="14.00">1</text>
</g>
<!-- E&#45;&gt;A -->
<g id="edge12" class="edge">
<title>E&#45;&gt;A</title>
<path fill="none" stroke="black" d="M292.06,-115.63C240.22,-115.63 125.09,-115.63 65.45,-115.63"/>
<polygon fill="black" stroke="black" points="65.81,-112.13 55.81,-115.63 65.81,-119.13 65.81,-112.13"/>
<text text-anchor="middle" x="173.25" y="-118.08" font-family="Helvetica,sans-Serif" font-size="14.00">5</text>
</g>
<!-- E&#45;&gt;D -->
<g id="edge13" class="edge">
<title>E&#45;&gt;D</title>
<path fill="none" stroke="black" d="M346.09,-119.61C354.77,-121.74 364.23,-124.98 372,-129.88 382.25,-136.35 391.42,-145.93 398.71,-155.03"/>
<polygon fill="black" stroke="black" points="395.87,-157.08 404.68,-162.98 401.47,-152.88 395.87,-157.08"/>
<text text-anchor="middle" x="368.25" y="-132.08" font-family="Helvetica,sans-Serif" font-size="14.00">1</text>
</g>
<!-- G -->
<g id="node7" class="node">
<title>G</title>
<ellipse fill="none" stroke="black" cx="612" cy="-176.63" rx="27" ry="18"/>
<text text-anchor="middle" x="612" y="-171.21" font-family="Helvetica,sans-Serif" font-size="14.00">G</text>
</g>
<!-- E&#45;&gt;G -->
<g id="edge14" class="edge">
<title>E&#45;&gt;G</title>
<path fill="none" stroke="black" d="M328.23,-98.46C338.83,-77.14 360.03,-41.51 390,-24.63 448.73,8.44 488.37,9.85 541.5,-31.63 578.7,-60.68 597.08,-114.6 605.27,-147.88"/>
<polygon fill="black" stroke="black" points="601.77,-148.27 607.42,-157.23 608.59,-146.71 601.77,-148.27"/>
<text text-anchor="middle" x="465.75" y="-3.08" font-family="Helvetica,sans-Serif" font-size="14.00">5</text>
</g>
<!-- I -->
<g id="node9" class="node">
<title>I</title>
<ellipse fill="none" stroke="black" cx="417" cy="-51.63" rx="27" ry="18"/>
<text text-anchor="middle" x="417" y="-46.21" font-family="Helvetica,sans-Serif" font-size="14.00">I</text>
</g>
<!-- E&#45;&gt;I -->
<g id="edge19" class="edge">
<title>E&#45;&gt;I</title>
<path fill="none" stroke="black" d="M332.5,-99.82C340.62,-90.05 352.09,-77.89 364.5,-69.88 369.46,-66.69 375.04,-63.97 380.66,-61.68"/>
<polygon fill="black" stroke="black" points="381.71,-65.03 389.92,-58.33 379.32,-58.44 381.71,-65.03"/>
<text text-anchor="middle" x="368.25" y="-73.08" font-family="Helvetica,sans-Serif" font-size="14.00">3</text>
</g>
<!-- F&#45;&gt;D -->
<g id="edge15" class="edge">
<title>F&#45;&gt;D</title>
<path fill="none" stroke="black" d="M490.79,-167.47C481.86,-164.92 471.49,-163.24 462,-164.88 458.32,-165.52 454.55,-166.44 450.83,-167.52"/>
<polygon fill="black" stroke="black" points="449.82,-164.16 441.42,-170.62 452.01,-170.81 449.82,-164.16"/>
<text text-anchor="middle" x="465.75" y="-167.08" font-family="Helvetica,sans-Serif" font-size="14.00">4</text>
</g>
<!-- F&#45;&gt;E -->
<g id="edge16" class="edge">
<title>F&#45;&gt;E</title>
<path fill="none" stroke="black" d="M494.46,-164.05C480.88,-155.58 461.94,-144.74 444,-137.88 413.36,-126.17 404.34,-127.15 372,-121.63 367.36,-120.84 362.46,-120.12 357.61,-119.48"/>
<polygon fill="black" stroke="black" points="358.37,-116.05 348.01,-118.31 357.51,-123 358.37,-116.05"/>
<text text-anchor="middle" x="417" y="-140.08" font-family="Helvetica,sans-Serif" font-size="14.00">1</text>
</g>
<!-- F&#45;&gt;G -->
<g id="edge17" class="edge">
<title>F&#45;&gt;G</title>
<path fill="none" stroke="black" d="M541.85,-176.63C551.56,-176.63 562.75,-176.63 573.27,-176.63"/>
<polygon fill="black" stroke="black" points="573.22,-180.13 583.22,-176.63 573.22,-173.13 573.22,-180.13"/>
<text text-anchor="middle" x="563.25" y="-179.08" font-family="Helvetica,sans-Serif" font-size="14.00">3</text>
</g>
<!-- H -->
<g id="node8" class="node">
<title>H</title>
<ellipse fill="none" stroke="black" cx="709.5" cy="-258.63" rx="27" ry="18"/>
<text text-anchor="middle" x="709.5" y="-253.21" font-family="Helvetica,sans-Serif" font-size="14.00">H</text>
</g>
<!-- F&#45;&gt;H -->
<g id="edge18" class="edge">
<title>F&#45;&gt;H</title>
<path fill="none" stroke="black" d="M537.37,-186.74C544.41,-189.95 552.27,-193.49 559.5,-196.63 599.08,-213.86 644.99,-232.81 675.28,-245.17"/>
<polygon fill="black" stroke="black" points="673.7,-248.31 684.28,-248.84 676.34,-241.82 673.7,-248.31"/>
<text text-anchor="middle" x="612" y="-232.08" font-family="Helvetica,sans-Serif" font-size="14.00">6</text>
</g>
<!-- G&#45;&gt;H -->
<g id="edge20" class="edge">
<title>G&#45;&gt;H</title>
<path fill="none" stroke="black" d="M634.35,-187.08C644.05,-192.33 655.37,-199.22 664.5,-206.88 673.75,-214.65 682.64,-224.49 689.98,-233.49"/>
<polygon fill="black" stroke="black" points="687.15,-235.56 696.08,-241.27 692.66,-231.24 687.15,-235.56"/>
<text text-anchor="middle" x="660.75" y="-209.08" font-family="Helvetica,sans-Serif" font-size="14.00">2</text>
</g>
<!-- H&#45;&gt;B -->
<g id="edge21" class="edge">
<title>H&#45;&gt;B</title>
<path fill="none" stroke="black" d="M698.12,-275.34C682.62,-297.99 651.12,-335.63 613,-335.63 221,-335.63 221,-335.63 221,-335.63 174.15,-335.63 146.72,-279.06 134.05,-243.28"/>
<polygon fill="black" stroke="black" points="137.42,-242.3 130.93,-233.92 130.78,-244.52 137.42,-242.3"/>
<text text-anchor="middle" x="417" y="-338.08" font-family="Helvetica,sans-Serif" font-size="14.00">6</text>
</g>
<!-- H&#45;&gt;B -->
<g id="edge22" class="edge">
<title>H&#45;&gt;B</title>
<path fill="none" stroke="black" d="M686.16,-267.94C667.08,-275.05 638.71,-283.63 613,-283.63 221,-283.63 221,-283.63 221,-283.63 189.78,-283.63 161.84,-259.11 144.37,-239.3"/>
<polygon fill="black" stroke="black" points="147.18,-237.21 138.08,-231.8 141.82,-241.71 147.18,-237.21"/>
<text text-anchor="middle" x="417" y="-286.08" font-family="Helvetica,sans-Serif" font-size="14.00">7</text>
</g>
<!-- J -->
<g id="node10" class="node">
<title>J</title>
<ellipse fill="none" stroke="black" cx="514.5" cy="-58.63" rx="27" ry="18"/>
<text text-anchor="middle" x="514.5" y="-53.21" font-family="Helvetica,sans-Serif" font-size="14.00">J</text>
</g>
<!-- I&#45;&gt;J -->
<g id="edge23" class="edge">
<title>I&#45;&gt;J</title>
<path fill="none" stroke="black" d="M438.92,-40.63C448.23,-37.04 459.36,-34.51 469.5,-36.88 474.26,-38 479.1,-39.7 483.74,-41.68"/>
<polygon fill="black" stroke="black" points="482.18,-44.82 492.71,-45.98 485.21,-38.51 482.18,-44.82"/>
<text text-anchor="middle" x="465.75" y="-40.08" font-family="Helvetica,sans-Serif" font-size="14.00">4</text>
</g>
<!-- J&#45;&gt;I -->
<g id="edge24" class="edge">
<title>J&#45;&gt;I</title>
<path fill="none" stroke="black" d="M487.24,-56.71C477.54,-56 466.35,-55.18 455.83,-54.41"/>
<polygon fill="black" stroke="black" points="456.09,-50.92 445.86,-53.68 455.58,-57.9 456.09,-50.92"/>
<text text-anchor="middle" x="465.75" y="-58.08" font-family="Helvetica,sans-Serif" font-size="14.00">5</text>
</g>
</g>
</svg>
