<?xml version="1.0" encoding="UTF-8" standalone="no"?>
<!DOCTYPE svg PUBLIC "-//W3C//DTD SVG 1.1//EN"
 "http://www.w3.org/Graphics/SVG/1.1/DTD/svg11.dtd">
<!-- Generated by graphviz version 12.0.0 (0)
 -->
<!-- Title: graphe251 Pages: 1 -->
<svg width="842pt" height="647pt"
 viewBox="0.00 0.00 842.00 647.41" xmlns="http://www.w3.org/2000/svg" xmlns:xlink="http://www.w3.org/1999/xlink">
<g id="graph0" class="graph" transform="scale(1 1) rotate(0) translate(4 643.41)">
<title>graphe251</title>
<polygon fill="white" stroke="none" points="-4,4 -4,-643.41 838,-643.41 838,4 -4,4"/>
<!-- Q -->
<g id="node1" class="node">
<title>Q</title>
<ellipse fill="none" stroke="black" cx="27" cy="-479.66" rx="27" ry="18"/>
<text text-anchor="middle" x="27" y="-474.24" font-family="Helvetica,sans-Serif" font-size="14.00">Q</text>
</g>
<!-- O -->
<g id="node2" class="node">
<title>O</title>
<ellipse fill="none" stroke="black" cx="417" cy="-356.66" rx="27" ry="18"/>
<text text-anchor="middle" x="417" y="-351.24" font-family="Helvetica,sans-Serif" font-size="14.00">O</text>
</g>
<!-- Q&#45;&gt;O -->
<g id="edge1" class="edge">
<title>Q&#45;&gt;O</title>
<path fill="none" stroke="black" d="M54.1,-480.51C100.12,-481.16 198.05,-478.72 274.5,-450.66 319.58,-434.12 364.55,-400.6 391.32,-378.39"/>
<polygon fill="black" stroke="black" points="393.46,-381.16 398.84,-372.03 388.94,-375.81 393.46,-381.16"/>
<text text-anchor="middle" x="222" y="-473.11" font-family="Helvetica,sans-Serif" font-size="14.00">8</text>
</g>
<!-- A -->
<g id="node10" class="node">
<title>A</title>
<ellipse fill="none" stroke="black" cx="124.5" cy="-421.66" rx="27" ry="18"/>
<text text-anchor="middle" x="124.5" y="-416.24" font-family="Helvetica,sans-Serif" font-size="14.00">A</text>
</g>
<!-- Q&#45;&gt;A -->
<g id="edge21" class="edge">
<title>Q&#45;&gt;A</title>
<path fill="none" stroke="black" d="M47.79,-467.65C61.23,-459.48 79.24,-448.54 94.33,-439.38"/>
<polygon fill="black" stroke="black" points="95.71,-442.63 102.44,-434.45 92.08,-436.65 95.71,-442.63"/>
<text text-anchor="middle" x="75.75" y="-454.11" font-family="Helvetica,sans-Serif" font-size="14.00">4</text>
</g>
<!-- Y -->
<g id="node11" class="node">
<title>Y</title>
<ellipse fill="none" stroke="black" cx="222" cy="-140.66" rx="27" ry="18"/>
<text text-anchor="middle" x="222" y="-135.24" font-family="Helvetica,sans-Serif" font-size="14.00">Y</text>
</g>
<!-- Q&#45;&gt;Y -->
<g id="edge6" class="edge">
<title>Q&#45;&gt;Y</title>
<path fill="none" stroke="black" d="M33.3,-461.77C47.67,-413.52 86.96,-283.25 97.5,-265.91 123.44,-223.25 166.63,-183.99 194.45,-161.19"/>
<polygon fill="black" stroke="black" points="196.47,-164.05 202.07,-155.05 192.08,-158.6 196.47,-164.05"/>
<text text-anchor="middle" x="124.5" y="-268.11" font-family="Helvetica,sans-Serif" font-size="14.00">4</text>
</g>
<!-- M -->
<g id="node8" class="node">
<title>M</title>
<ellipse fill="none" stroke="black" cx="514.5" cy="-310.66" rx="27" ry="18"/>
<text text-anchor="middle" x="514.5" y="-305.24" font-family="Helvetica,sans-Serif" font-size="14.00">M</text>
</g>
<!-- O&#45;&gt;M -->
<g id="edge43" class="edge">
<title>O&#45;&gt;M</title>
<path fill="none" stroke="black" d="M439.67,-346.22C452.12,-340.23 467.99,-332.58 481.83,-325.92"/>
<polygon fill="black" stroke="black" points="483.06,-329.21 490.55,-321.72 480.02,-322.9 483.06,-329.21"/>
<text text-anchor="middle" x="465.75" y="-337.11" font-family="Helvetica,sans-Serif" font-size="14.00">6</text>
</g>
<!-- I -->
<g id="node3" class="node">
<title>I</title>
<ellipse fill="none" stroke="black" cx="222" cy="-356.66" rx="27" ry="18"/>
<text text-anchor="middle" x="222" y="-351.24" font-family="Helvetica,sans-Serif" font-size="14.00">I</text>
</g>
<!-- I&#45;&gt;O -->
<g id="edge32" class="edge">
<title>I&#45;&gt;O</title>
<path fill="none" stroke="black" d="M249.43,-356.66C282.83,-356.66 340.53,-356.66 378.48,-356.66"/>
<polygon fill="black" stroke="black" points="378.07,-360.16 388.07,-356.66 378.07,-353.16 378.07,-360.16"/>
<text text-anchor="middle" x="319.5" y="-359.11" font-family="Helvetica,sans-Serif" font-size="14.00">6</text>
</g>
<!-- L -->
<g id="node4" class="node">
<title>L</title>
<ellipse fill="none" stroke="black" cx="709.5" cy="-249.66" rx="27" ry="18"/>
<text text-anchor="middle" x="709.5" y="-244.24" font-family="Helvetica,sans-Serif" font-size="14.00">L</text>
</g>
<!-- I&#45;&gt;L -->
<g id="edge2" class="edge">
<title>I&#45;&gt;L</title>
<path fill="none" stroke="black" d="M230.81,-339.42C244.42,-312.28 275.23,-262.66 318.5,-262.66 318.5,-262.66 318.5,-262.66 466.75,-262.66 539.21,-262.66 623.71,-256.77 671.17,-252.92"/>
<polygon fill="black" stroke="black" points="671.22,-256.42 680.9,-252.11 670.65,-249.45 671.22,-256.42"/>
<text text-anchor="middle" x="465.75" y="-265.11" font-family="Helvetica,sans-Serif" font-size="14.00">5</text>
</g>
<!-- J -->
<g id="node18" class="node">
<title>J</title>
<ellipse fill="none" stroke="black" cx="319.5" cy="-496.66" rx="27" ry="18"/>
<text text-anchor="middle" x="319.5" y="-491.24" font-family="Helvetica,sans-Serif" font-size="14.00">J</text>
</g>
<!-- I&#45;&gt;J -->
<g id="edge39" class="edge">
<title>I&#45;&gt;J</title>
<path fill="none" stroke="black" d="M234.14,-373C250.6,-397.13 281.57,-442.52 301.06,-471.09"/>
<polygon fill="black" stroke="black" points="298.05,-472.89 306.58,-479.18 303.83,-468.95 298.05,-472.89"/>
<text text-anchor="middle" x="270.75" y="-433.11" font-family="Helvetica,sans-Serif" font-size="14.00">3</text>
</g>
<!-- L&#45;&gt;M -->
<g id="edge18" class="edge">
<title>L&#45;&gt;M</title>
<path fill="none" stroke="black" d="M690.37,-262.63C682.69,-267.63 673.46,-273.01 664.5,-276.66 627.79,-291.64 583.18,-300.71 552.39,-305.68"/>
<polygon fill="black" stroke="black" points="552.16,-302.17 542.81,-307.15 553.23,-309.09 552.16,-302.17"/>
<text text-anchor="middle" x="612" y="-301.11" font-family="Helvetica,sans-Serif" font-size="14.00">4</text>
</g>
<!-- W -->
<g id="node14" class="node">
<title>W</title>
<ellipse fill="none" stroke="black" cx="612" cy="-119.66" rx="27" ry="18"/>
<text text-anchor="middle" x="612" y="-114.24" font-family="Helvetica,sans-Serif" font-size="14.00">W</text>
</g>
<!-- L&#45;&gt;W -->
<g id="edge25" class="edge">
<title>L&#45;&gt;W</title>
<path fill="none" stroke="black" d="M701.62,-231.99C694.12,-214.03 680.96,-185.93 664.5,-164.91 657.31,-155.73 648.08,-146.95 639.43,-139.61"/>
<polygon fill="black" stroke="black" points="641.86,-137.08 631.9,-133.48 637.44,-142.51 641.86,-137.08"/>
<text text-anchor="middle" x="660.75" y="-167.11" font-family="Helvetica,sans-Serif" font-size="14.00">7</text>
</g>
<!-- B -->
<g id="node22" class="node">
<title>B</title>
<ellipse fill="none" stroke="black" cx="807" cy="-398.66" rx="27" ry="18"/>
<text text-anchor="middle" x="807" y="-393.24" font-family="Helvetica,sans-Serif" font-size="14.00">B</text>
</g>
<!-- L&#45;&gt;B -->
<g id="edge22" class="edge">
<title>L&#45;&gt;B</title>
<path fill="none" stroke="black" d="M721.09,-266.18C737.58,-291.91 769.55,-341.79 789.21,-372.47"/>
<polygon fill="black" stroke="black" points="786.21,-374.27 794.55,-380.8 792.1,-370.49 786.21,-374.27"/>
<text text-anchor="middle" x="758.25" y="-330.11" font-family="Helvetica,sans-Serif" font-size="14.00">3</text>
</g>
<!-- X -->
<g id="node5" class="node">
<title>X</title>
<ellipse fill="none" stroke="black" cx="709.5" cy="-92.66" rx="27" ry="18"/>
<text text-anchor="middle" x="709.5" y="-87.24" font-family="Helvetica,sans-Serif" font-size="14.00">X</text>
</g>
<!-- G -->
<g id="node6" class="node">
<title>G</title>
<ellipse fill="none" stroke="black" cx="807" cy="-258.66" rx="27" ry="18"/>
<text text-anchor="middle" x="807" y="-253.24" font-family="Helvetica,sans-Serif" font-size="14.00">G</text>
</g>
<!-- X&#45;&gt;G -->
<g id="edge3" class="edge">
<title>X&#45;&gt;G</title>
<path fill="none" stroke="black" d="M734.95,-99.43C744.55,-103.18 754.93,-108.78 762,-116.91 789.62,-148.67 799.91,-197.6 803.73,-228.86"/>
<polygon fill="black" stroke="black" points="800.25,-229.22 804.78,-238.8 807.21,-228.48 800.25,-229.22"/>
<text text-anchor="middle" x="758.25" y="-120.11" font-family="Helvetica,sans-Serif" font-size="14.00">8</text>
</g>
<!-- V -->
<g id="node19" class="node">
<title>V</title>
<ellipse fill="none" stroke="black" cx="807" cy="-76.66" rx="27" ry="18"/>
<text text-anchor="middle" x="807" y="-71.24" font-family="Helvetica,sans-Serif" font-size="14.00">V</text>
</g>
<!-- X&#45;&gt;V -->
<g id="edge15" class="edge">
<title>X&#45;&gt;V</title>
<path fill="none" stroke="black" d="M733,-83.68C739.8,-81.36 747.36,-79.17 754.5,-77.91 758.93,-77.13 763.61,-76.61 768.27,-76.28"/>
<polygon fill="black" stroke="black" points="768.3,-79.78 778.14,-75.86 768,-72.79 768.3,-79.78"/>
<text text-anchor="middle" x="758.25" y="-81.11" font-family="Helvetica,sans-Serif" font-size="14.00">4</text>
</g>
<!-- G&#45;&gt;O -->
<g id="edge46" class="edge">
<title>G&#45;&gt;O</title>
<path fill="none" stroke="black" d="M786.51,-270.73C746.94,-294.42 653.59,-346.32 567,-364.66 529.19,-372.67 484.84,-368.63 454.42,-363.86"/>
<polygon fill="black" stroke="black" points="455.02,-360.41 444.58,-362.2 453.86,-367.32 455.02,-360.41"/>
<text text-anchor="middle" x="612" y="-362.11" font-family="Helvetica,sans-Serif" font-size="14.00">2</text>
</g>
<!-- E -->
<g id="node7" class="node">
<title>E</title>
<ellipse fill="none" stroke="black" cx="417" cy="-118.66" rx="27" ry="18"/>
<text text-anchor="middle" x="417" y="-113.24" font-family="Helvetica,sans-Serif" font-size="14.00">E</text>
</g>
<!-- E&#45;&gt;L -->
<g id="edge27" class="edge">
<title>E&#45;&gt;L</title>
<path fill="none" stroke="black" d="M432.4,-103.69C473.56,-62.63 593.33,44.48 664.5,-20.66 697.91,-51.24 663.34,-182.63 682.5,-223.66 683.03,-224.79 683.62,-225.9 684.28,-226.98"/>
<polygon fill="black" stroke="black" points="681.47,-229.07 690.39,-234.78 686.98,-224.75 681.47,-229.07"/>
<text text-anchor="middle" x="563.25" y="-14.11" font-family="Helvetica,sans-Serif" font-size="14.00">7</text>
</g>
<!-- E&#45;&gt;M -->
<g id="edge4" class="edge">
<title>E&#45;&gt;M</title>
<path fill="none" stroke="black" d="M426.47,-135.7C443.03,-168.99 479.81,-242.93 499.85,-283.21"/>
<polygon fill="black" stroke="black" points="496.65,-284.64 504.23,-292.03 502.91,-281.52 496.65,-284.64"/>
<text text-anchor="middle" x="465.75" y="-222.11" font-family="Helvetica,sans-Serif" font-size="14.00">4</text>
</g>
<!-- M&#45;&gt;O -->
<g id="edge34" class="edge">
<title>M&#45;&gt;O</title>
<path fill="none" stroke="black" d="M488.06,-306.19C479.48,-305.73 470.04,-306.44 462,-309.91 451.63,-314.39 442.58,-322.65 435.42,-331"/>
<polygon fill="black" stroke="black" points="432.78,-328.69 429.36,-338.72 438.29,-333.01 432.78,-328.69"/>
<text text-anchor="middle" x="465.75" y="-312.11" font-family="Helvetica,sans-Serif" font-size="14.00">7</text>
</g>
<!-- M&#45;&gt;W -->
<g id="edge9" class="edge">
<title>M&#45;&gt;W</title>
<path fill="none" stroke="black" d="M524.14,-293.38C540.8,-260.07 577.45,-186.76 597.41,-146.85"/>
<polygon fill="black" stroke="black" points="600.43,-148.64 601.77,-138.13 594.17,-145.51 600.43,-148.64"/>
<text text-anchor="middle" x="563.25" y="-223.11" font-family="Helvetica,sans-Serif" font-size="14.00">3</text>
</g>
<!-- C -->
<g id="node16" class="node">
<title>C</title>
<ellipse fill="none" stroke="black" cx="612" cy="-412.66" rx="27" ry="18"/>
<text text-anchor="middle" x="612" y="-407.24" font-family="Helvetica,sans-Serif" font-size="14.00">C</text>
</g>
<!-- M&#45;&gt;C -->
<g id="edge29" class="edge">
<title>M&#45;&gt;C</title>
<path fill="none" stroke="black" d="M529.59,-325.71C545.25,-342.44 570.73,-369.65 589.02,-389.18"/>
<polygon fill="black" stroke="black" points="586.43,-391.54 595.82,-396.45 591.54,-386.75 586.43,-391.54"/>
<text text-anchor="middle" x="563.25" y="-367.11" font-family="Helvetica,sans-Serif" font-size="14.00">5</text>
</g>
<!-- K -->
<g id="node9" class="node">
<title>K</title>
<ellipse fill="none" stroke="black" cx="27" cy="-363.66" rx="27" ry="18"/>
<text text-anchor="middle" x="27" y="-358.24" font-family="Helvetica,sans-Serif" font-size="14.00">K</text>
</g>
<!-- K&#45;&gt;I -->
<g id="edge42" class="edge">
<title>K&#45;&gt;I</title>
<path fill="none" stroke="black" d="M54.43,-362.7C87.83,-361.49 145.53,-359.4 183.48,-358.02"/>
<polygon fill="black" stroke="black" points="183.2,-361.54 193.07,-357.68 182.95,-354.54 183.2,-361.54"/>
<text text-anchor="middle" x="124.5" y="-363.11" font-family="Helvetica,sans-Serif" font-size="14.00">9</text>
</g>
<!-- K&#45;&gt;L -->
<g id="edge36" class="edge">
<title>K&#45;&gt;L</title>
<path fill="none" stroke="black" d="M31.55,-345.77C38.46,-316.21 56.76,-257.85 97.5,-231.66 143.74,-201.93 166.02,-224.66 221,-224.66 221,-224.66 221,-224.66 564.25,-224.66 601.95,-224.66 644.38,-233.05 673.41,-240.11"/>
<polygon fill="black" stroke="black" points="672.2,-243.42 682.75,-242.46 673.91,-236.63 672.2,-243.42"/>
<text text-anchor="middle" x="368.25" y="-227.11" font-family="Helvetica,sans-Serif" font-size="14.00">8</text>
</g>
<!-- K&#45;&gt;A -->
<g id="edge5" class="edge">
<title>K&#45;&gt;A</title>
<path fill="none" stroke="black" d="M47.79,-375.68C61.23,-383.85 79.24,-394.79 94.33,-403.94"/>
<polygon fill="black" stroke="black" points="92.08,-406.68 102.44,-408.87 95.71,-400.69 92.08,-406.68"/>
<text text-anchor="middle" x="75.75" y="-396.11" font-family="Helvetica,sans-Serif" font-size="14.00">8</text>
</g>
<!-- A&#45;&gt;Y -->
<g id="edge8" class="edge">
<title>A&#45;&gt;Y</title>
<path fill="none" stroke="black" d="M139.27,-406.24C143.67,-400.69 148.24,-394.18 151.5,-387.66 188.33,-313.99 208.21,-217.88 216.42,-170.19"/>
<polygon fill="black" stroke="black" points="219.86,-170.81 218.05,-160.37 212.96,-169.66 219.86,-170.81"/>
<text text-anchor="middle" x="173.25" y="-345.11" font-family="Helvetica,sans-Serif" font-size="14.00">7</text>
</g>
<!-- S -->
<g id="node15" class="node">
<title>S</title>
<ellipse fill="none" stroke="black" cx="417" cy="-534.66" rx="27" ry="18"/>
<text text-anchor="middle" x="417" y="-529.24" font-family="Helvetica,sans-Serif" font-size="14.00">S</text>
</g>
<!-- A&#45;&gt;S -->
<g id="edge10" class="edge">
<title>A&#45;&gt;S</title>
<path fill="none" stroke="black" d="M149.86,-428.6C176.01,-436.82 217.97,-452.27 249,-474.66 272.61,-491.7 266.49,-510.56 292.5,-523.66 319.05,-537.04 352.9,-539.19 378.45,-538.32"/>
<polygon fill="black" stroke="black" points="378.59,-541.82 388.39,-537.8 378.22,-534.83 378.59,-541.82"/>
<text text-anchor="middle" x="270.75" y="-510.11" font-family="Helvetica,sans-Serif" font-size="14.00">6</text>
</g>
<!-- U -->
<g id="node23" class="node">
<title>U</title>
<ellipse fill="none" stroke="black" cx="319.5" cy="-118.66" rx="27" ry="18"/>
<text text-anchor="middle" x="319.5" y="-113.24" font-family="Helvetica,sans-Serif" font-size="14.00">U</text>
</g>
<!-- Y&#45;&gt;U -->
<g id="edge48" class="edge">
<title>Y&#45;&gt;U</title>
<path fill="none" stroke="black" d="M238.83,-126.04C246.69,-119.78 256.69,-113.16 267,-109.91 272.54,-108.17 278.52,-107.85 284.39,-108.34"/>
<polygon fill="black" stroke="black" points="283.44,-111.73 293.87,-109.89 284.57,-104.82 283.44,-111.73"/>
<text text-anchor="middle" x="270.75" y="-113.11" font-family="Helvetica,sans-Serif" font-size="14.00">9</text>
</g>
<!-- N -->
<g id="node12" class="node">
<title>N</title>
<ellipse fill="none" stroke="black" cx="514.5" cy="-518.66" rx="27" ry="18"/>
<text text-anchor="middle" x="514.5" y="-513.24" font-family="Helvetica,sans-Serif" font-size="14.00">N</text>
</g>
<!-- H -->
<g id="node13" class="node">
<title>H</title>
<ellipse fill="none" stroke="black" cx="612" cy="-504.66" rx="27" ry="18"/>
<text text-anchor="middle" x="612" y="-499.24" font-family="Helvetica,sans-Serif" font-size="14.00">H</text>
</g>
<!-- N&#45;&gt;H -->
<g id="edge7" class="edge">
<title>N&#45;&gt;H</title>
<path fill="none" stroke="black" d="M541.34,-514.87C551.32,-513.41 562.93,-511.71 573.78,-510.12"/>
<polygon fill="black" stroke="black" points="574.25,-513.59 583.64,-508.67 573.24,-506.66 574.25,-513.59"/>
<text text-anchor="middle" x="563.25" y="-514.11" font-family="Helvetica,sans-Serif" font-size="14.00">9</text>
</g>
<!-- D -->
<g id="node17" class="node">
<title>D</title>
<ellipse fill="none" stroke="black" cx="709.5" cy="-558.66" rx="27" ry="18"/>
<text text-anchor="middle" x="709.5" y="-553.24" font-family="Helvetica,sans-Serif" font-size="14.00">D</text>
</g>
<!-- N&#45;&gt;D -->
<g id="edge14" class="edge">
<title>N&#45;&gt;D</title>
<path fill="none" stroke="black" d="M539.12,-526.15C545.68,-528.09 552.84,-530.08 559.5,-531.66 597.32,-540.65 641.16,-548.26 671.45,-553.09"/>
<polygon fill="black" stroke="black" points="670.83,-556.54 681.26,-554.63 671.92,-549.62 670.83,-556.54"/>
<text text-anchor="middle" x="612" y="-549.11" font-family="Helvetica,sans-Serif" font-size="14.00">8</text>
</g>
<!-- N&#45;&gt;V -->
<g id="edge16" class="edge">
<title>N&#45;&gt;V</title>
<path fill="none" stroke="black" d="M534.39,-506.06C548.05,-497.32 567.16,-485.82 585,-477.66 617.31,-462.89 713.05,-453.34 736.5,-426.66 737.84,-425.13 783.82,-190.23 800.24,-106.16"/>
<polygon fill="black" stroke="black" points="803.67,-106.87 802.15,-96.38 796.8,-105.52 803.67,-106.87"/>
<text text-anchor="middle" x="660.75" y="-460.11" font-family="Helvetica,sans-Serif" font-size="14.00">6</text>
</g>
<!-- H&#45;&gt;L -->
<g id="edge40" class="edge">
<title>H&#45;&gt;L</title>
<path fill="none" stroke="black" d="M620.21,-487.06C625.51,-474.02 632.83,-455.78 639,-439.66 660.91,-382.44 685.23,-314.97 698.5,-277.8"/>
<polygon fill="black" stroke="black" points="701.69,-279.3 701.75,-268.7 695.09,-276.95 701.69,-279.3"/>
<text text-anchor="middle" x="660.75" y="-389.11" font-family="Helvetica,sans-Serif" font-size="14.00">3</text>
</g>
<!-- H&#45;&gt;A -->
<g id="edge24" class="edge">
<title>H&#45;&gt;A</title>
<path fill="none" stroke="black" d="M586.81,-497.34C531.91,-481.11 393.42,-442.29 274.5,-426.66 236.78,-421.71 193.25,-420.79 163.02,-420.91"/>
<polygon fill="black" stroke="black" points="163.22,-417.41 153.25,-421 163.28,-424.41 163.22,-417.41"/>
<text text-anchor="middle" x="368.25" y="-445.11" font-family="Helvetica,sans-Serif" font-size="14.00">1</text>
</g>
<!-- W&#45;&gt;L -->
<g id="edge20" class="edge">
<title>W&#45;&gt;L</title>
<path fill="none" stroke="black" d="M623.7,-136.19C632.41,-149.47 645.16,-168.51 657,-184.66 667.04,-198.36 678.76,-213.23 688.48,-225.29"/>
<polygon fill="black" stroke="black" points="685.49,-227.16 694.51,-232.72 690.93,-222.75 685.49,-227.16"/>
<text text-anchor="middle" x="660.75" y="-196.11" font-family="Helvetica,sans-Serif" font-size="14.00">4</text>
</g>
<!-- W&#45;&gt;X -->
<g id="edge19" class="edge">
<title>W&#45;&gt;X</title>
<path fill="none" stroke="black" d="M636.17,-111.46C642.85,-109.21 650.18,-106.86 657,-104.91 661.96,-103.5 667.21,-102.11 672.4,-100.81"/>
<polygon fill="black" stroke="black" points="673.13,-104.24 682.03,-98.49 671.48,-97.43 673.13,-104.24"/>
<text text-anchor="middle" x="660.75" y="-108.11" font-family="Helvetica,sans-Serif" font-size="14.00">6</text>
</g>
<!-- W&#45;&gt;G -->
<g id="edge33" class="edge">
<title>W&#45;&gt;G</title>
<path fill="none" stroke="black" d="M632.83,-131.4C642.52,-137.28 654.26,-144.63 664.5,-151.66 706.02,-180.17 752.23,-215.91 780.2,-238.02"/>
<polygon fill="black" stroke="black" points="777.75,-240.55 787.76,-244.02 782.1,-235.07 777.75,-240.55"/>
<text text-anchor="middle" x="709.5" y="-206.11" font-family="Helvetica,sans-Serif" font-size="14.00">3</text>
</g>
<!-- F -->
<g id="node24" class="node">
<title>F</title>
<ellipse fill="none" stroke="black" cx="709.5" cy="-37.66" rx="27" ry="18"/>
<text text-anchor="middle" x="709.5" y="-32.24" font-family="Helvetica,sans-Serif" font-size="14.00">F</text>
</g>
<!-- W&#45;&gt;F -->
<g id="edge28" class="edge">
<title>W&#45;&gt;F</title>
<path fill="none" stroke="black" d="M615.73,-101.55C620.14,-79.53 631.09,-43.3 657,-26.91 662.98,-23.13 670.05,-22.62 677.01,-23.75"/>
<polygon fill="black" stroke="black" points="675.65,-27.01 686.22,-26.24 677.48,-20.25 675.65,-27.01"/>
<text text-anchor="middle" x="660.75" y="-30.11" font-family="Helvetica,sans-Serif" font-size="14.00">2</text>
</g>
<!-- S&#45;&gt;G -->
<g id="edge44" class="edge">
<title>S&#45;&gt;G</title>
<path fill="none" stroke="black" d="M436.75,-547.08C493.14,-582.81 661.81,-677.58 736.5,-585.66 797.71,-510.34 759.45,-466.52 780,-371.66 786.21,-343.01 793.76,-310.4 799.13,-287.59"/>
<polygon fill="black" stroke="black" points="802.48,-288.65 801.37,-278.11 795.66,-287.04 802.48,-288.65"/>
<text text-anchor="middle" x="612" y="-626.11" font-family="Helvetica,sans-Serif" font-size="14.00">2</text>
</g>
<!-- S&#45;&gt;N -->
<g id="edge38" class="edge">
<title>S&#45;&gt;N</title>
<path fill="none" stroke="black" d="M443.59,-530.37C453.76,-528.67 465.65,-526.68 476.72,-524.83"/>
<polygon fill="black" stroke="black" points="477.06,-528.32 486.34,-523.21 475.9,-521.41 477.06,-528.32"/>
<text text-anchor="middle" x="465.75" y="-529.11" font-family="Helvetica,sans-Serif" font-size="14.00">7</text>
</g>
<!-- C&#45;&gt;D -->
<g id="edge11" class="edge">
<title>C&#45;&gt;D</title>
<path fill="none" stroke="black" d="M623.77,-429.13C640.25,-454.32 671.87,-502.66 691.47,-532.63"/>
<polygon fill="black" stroke="black" points="688.39,-534.32 696.79,-540.77 694.25,-530.48 688.39,-534.32"/>
<text text-anchor="middle" x="660.75" y="-492.11" font-family="Helvetica,sans-Serif" font-size="14.00">5</text>
</g>
<!-- C&#45;&gt;B -->
<g id="edge47" class="edge">
<title>C&#45;&gt;B</title>
<path fill="none" stroke="black" d="M639.03,-410.77C672.41,-408.35 730.53,-404.14 768.63,-401.37"/>
<polygon fill="black" stroke="black" points="768.54,-404.89 778.26,-400.68 768.03,-397.91 768.54,-404.89"/>
<text text-anchor="middle" x="709.5" y="-409.11" font-family="Helvetica,sans-Serif" font-size="14.00">9</text>
</g>
<!-- D&#45;&gt;Q -->
<g id="edge12" class="edge">
<title>D&#45;&gt;Q</title>
<path fill="none" stroke="black" d="M691.29,-572.1C672.96,-585.04 642.57,-602.66 613,-602.66 123.5,-602.66 123.5,-602.66 123.5,-602.66 76.05,-602.66 48.78,-544.85 36.31,-508.5"/>
<polygon fill="black" stroke="black" points="39.65,-507.43 33.25,-498.99 32.99,-509.58 39.65,-507.43"/>
<text text-anchor="middle" x="368.25" y="-605.11" font-family="Helvetica,sans-Serif" font-size="14.00">5</text>
</g>
<!-- J&#45;&gt;S -->
<g id="edge13" class="edge">
<title>J&#45;&gt;S</title>
<path fill="none" stroke="black" d="M344.87,-503.51C353.54,-506.17 363.3,-509.41 372,-512.91 376.24,-514.62 380.63,-516.56 384.92,-518.57"/>
<polygon fill="black" stroke="black" points="383.38,-521.71 393.9,-522.93 386.44,-515.41 383.38,-521.71"/>
<text text-anchor="middle" x="368.25" y="-515.11" font-family="Helvetica,sans-Serif" font-size="14.00">2</text>
</g>
<!-- R -->
<g id="node20" class="node">
<title>R</title>
<ellipse fill="none" stroke="black" cx="27" cy="-96.66" rx="27" ry="18"/>
<text text-anchor="middle" x="27" y="-91.24" font-family="Helvetica,sans-Serif" font-size="14.00">R</text>
</g>
<!-- R&#45;&gt;Y -->
<g id="edge31" class="edge">
<title>R&#45;&gt;Y</title>
<path fill="none" stroke="black" d="M54.04,-95.72C79.38,-95.47 118.75,-96.88 151.5,-105.91 165.38,-109.74 179.77,-116.42 191.83,-122.9"/>
<polygon fill="black" stroke="black" points="190,-125.89 200.43,-127.73 193.43,-119.79 190,-125.89"/>
<text text-anchor="middle" x="124.5" y="-109.11" font-family="Helvetica,sans-Serif" font-size="14.00">5</text>
</g>
<!-- R&#45;&gt;W -->
<g id="edge45" class="edge">
<title>R&#45;&gt;W</title>
<path fill="none" stroke="black" d="M44.78,-82.86C62.99,-69.31 93.5,-50.66 123.5,-50.66 123.5,-50.66 123.5,-50.66 515.5,-50.66 546.72,-50.66 574.66,-75.19 592.13,-95"/>
<polygon fill="black" stroke="black" points="589.32,-97.09 598.42,-102.5 594.68,-92.59 589.32,-97.09"/>
<text text-anchor="middle" x="319.5" y="-53.11" font-family="Helvetica,sans-Serif" font-size="14.00">1</text>
</g>
<!-- P -->
<g id="node21" class="node">
<title>P</title>
<ellipse fill="none" stroke="black" cx="124.5" cy="-148.66" rx="27" ry="18"/>
<text text-anchor="middle" x="124.5" y="-143.24" font-family="Helvetica,sans-Serif" font-size="14.00">P</text>
</g>
<!-- R&#45;&gt;P -->
<g id="edge17" class="edge">
<title>R&#45;&gt;P</title>
<path fill="none" stroke="black" d="M48.72,-107.95C61.61,-114.96 78.42,-124.12 92.84,-131.97"/>
<polygon fill="black" stroke="black" points="91.03,-134.97 101.49,-136.68 94.38,-128.82 91.03,-134.97"/>
<text text-anchor="middle" x="75.75" y="-127.11" font-family="Helvetica,sans-Serif" font-size="14.00">7</text>
</g>
<!-- P&#45;&gt;Y -->
<g id="edge35" class="edge">
<title>P&#45;&gt;Y</title>
<path fill="none" stroke="black" d="M146.93,-138.11C153.95,-135.17 161.9,-132.39 169.5,-130.91 174.91,-129.86 180.64,-129.85 186.24,-130.46"/>
<polygon fill="black" stroke="black" points="185.46,-133.87 195.91,-132.14 186.66,-126.98 185.46,-133.87"/>
<text text-anchor="middle" x="173.25" y="-134.11" font-family="Helvetica,sans-Serif" font-size="14.00">6</text>
</g>
<!-- U&#45;&gt;E -->
<g id="edge41" class="edge">
<title>U&#45;&gt;E</title>
<path fill="none" stroke="black" d="M346.85,-118.66C356.56,-118.66 367.75,-118.66 378.27,-118.66"/>
<polygon fill="black" stroke="black" points="378.22,-122.16 388.22,-118.66 378.22,-115.16 378.22,-122.16"/>
<text text-anchor="middle" x="368.25" y="-121.11" font-family="Helvetica,sans-Serif" font-size="14.00">8</text>
</g>
<!-- U&#45;&gt;Y -->
<g id="edge23" class="edge">
<title>U&#45;&gt;Y</title>
<path fill="none" stroke="black" d="M293.58,-124.4C283.07,-126.82 270.63,-129.69 259.15,-132.33"/>
<polygon fill="black" stroke="black" points="258.53,-128.89 249.57,-134.54 260.1,-135.71 258.53,-128.89"/>
<text text-anchor="middle" x="270.75" y="-133.11" font-family="Helvetica,sans-Serif" font-size="14.00">6</text>
</g>
<!-- F&#45;&gt;W -->
<g id="edge37" class="edge">
<title>F&#45;&gt;W</title>
<path fill="none" stroke="black" d="M692.22,-51.64C677.24,-64.5 654.81,-83.76 637.63,-98.51"/>
<polygon fill="black" stroke="black" points="635.66,-95.6 630.35,-104.77 640.22,-100.91 635.66,-95.6"/>
<text text-anchor="middle" x="660.75" y="-84.11" font-family="Helvetica,sans-Serif" font-size="14.00">1</text>
</g>
<!-- F&#45;&gt;V -->
<g id="edge26" class="edge">
<title>F&#45;&gt;V</title>
<path fill="none" stroke="black" d="M733.37,-46.5C742.32,-50 752.66,-54.09 762,-57.91 765.65,-59.41 769.45,-60.99 773.23,-62.58"/>
<polygon fill="black" stroke="black" points="771.7,-65.73 782.27,-66.41 774.43,-59.29 771.7,-65.73"/>
<text text-anchor="middle" x="758.25" y="-61.11" font-family="Helvetica,sans-Serif" font-size="14.00">3</text>
</g>
<!-- T -->
<g id="node25" class="node">
<title>T</title>
<ellipse fill="none" stroke="black" cx="27" cy="-245.66" rx="27" ry="18"/>
<text text-anchor="middle" x="27" y="-240.24" font-family="Helvetica,sans-Serif" font-size="14.00">T</text>
</g>
<!-- T&#45;&gt;I -->
<g id="edge30" class="edge">
<title>T&#45;&gt;I</title>
<path fill="none" stroke="black" d="M48.29,-257.33C82.32,-276.9 151.05,-316.43 190.78,-339.28"/>
<polygon fill="black" stroke="black" points="188.97,-342.28 199.38,-344.23 192.46,-336.21 188.97,-342.28"/>
<text text-anchor="middle" x="124.5" y="-318.11" font-family="Helvetica,sans-Serif" font-size="14.00">4</text>
</g>
<!-- T&#45;&gt;P -->
<g id="edge49" class="edge">
<title>T&#45;&gt;P</title>
<path fill="none" stroke="black" d="M38.88,-229.04C47.19,-216.95 59.34,-200.57 72,-187.91 79.2,-180.71 87.75,-173.7 95.79,-167.63"/>
<polygon fill="black" stroke="black" points="97.65,-170.61 103.67,-161.89 93.53,-164.95 97.65,-170.61"/>
<text text-anchor="middle" x="75.75" y="-190.11" font-family="Helvetica,sans-Serif" font-size="14.00">1</text>
</g>
</g>
</svg>
