<?xml version="1.0" encoding="UTF-8" standalone="no"?>
<!DOCTYPE svg PUBLIC "-//W3C//DTD SVG 1.1//EN"
 "http://www.w3.org/Graphics/SVG/1.1/DTD/svg11.dtd">
<!-- Generated by graphviz version 12.0.0 (0)
 -->
<!-- Title: graphe061 Pages: 1 -->
<svg width="550pt" height="217pt"
 viewBox="0.00 0.00 549.50 216.75" xmlns="http://www.w3.org/2000/svg" xmlns:xlink="http://www.w3.org/1999/xlink">
<g id="graph0" class="graph" transform="scale(1 1) rotate(0) translate(4 212.75)">
<title>graphe061</title>
<polygon fill="white" stroke="none" points="-4,4 -4,-212.75 545.5,-212.75 545.5,4 -4,4"/>
<!-- B -->
<g id="node1" class="node">
<title>B</title>
<ellipse fill="none" stroke="black" cx="27" cy="-98" rx="27" ry="18"/>
<text text-anchor="middle" x="27" y="-92.58" font-family="Helvetica,sans-Serif" font-size="14.00">B</text>
</g>
<!-- F -->
<g id="node2" class="node">
<title>F</title>
<ellipse fill="none" stroke="black" cx="222" cy="-118" rx="27" ry="18"/>
<text text-anchor="middle" x="222" y="-112.58" font-family="Helvetica,sans-Serif" font-size="14.00">F</text>
</g>
<!-- B&#45;&gt;F -->
<g id="edge1" class="edge">
<title>B&#45;&gt;F</title>
<path fill="none" stroke="black" d="M50.13,-107.85C57.05,-110.71 64.77,-113.69 72,-116 116.69,-130.3 130.32,-131.73 177,-127 179.52,-126.74 182.11,-126.41 184.71,-126.02"/>
<polygon fill="black" stroke="black" points="185.28,-129.47 194.51,-124.29 184.06,-122.58 185.28,-129.47"/>
<text text-anchor="middle" x="124.5" y="-131.45" font-family="Helvetica,sans-Serif" font-size="14.00">5</text>
</g>
<!-- E -->
<g id="node3" class="node">
<title>E</title>
<ellipse fill="none" stroke="black" cx="514.5" cy="-79" rx="27" ry="18"/>
<text text-anchor="middle" x="514.5" y="-73.58" font-family="Helvetica,sans-Serif" font-size="14.00">E</text>
</g>
<!-- B&#45;&gt;E -->
<g id="edge9" class="edge">
<title>B&#45;&gt;E</title>
<path fill="none" stroke="black" d="M35.76,-115.42C49.3,-142.85 80,-193 123.5,-193 123.5,-193 123.5,-193 418,-193 462.54,-193 490.41,-141.24 503.86,-107.47"/>
<polygon fill="black" stroke="black" points="507.09,-108.82 507.34,-98.23 500.54,-106.36 507.09,-108.82"/>
<text text-anchor="middle" x="270.75" y="-195.45" font-family="Helvetica,sans-Serif" font-size="14.00">9</text>
</g>
<!-- A -->
<g id="node4" class="node">
<title>A</title>
<ellipse fill="none" stroke="black" cx="319.5" cy="-79" rx="27" ry="18"/>
<text text-anchor="middle" x="319.5" y="-73.58" font-family="Helvetica,sans-Serif" font-size="14.00">A</text>
</g>
<!-- B&#45;&gt;A -->
<g id="edge3" class="edge">
<title>B&#45;&gt;A</title>
<path fill="none" stroke="black" d="M47.82,-85.98C61.28,-78.7 79.79,-70.39 97.5,-68 125.06,-64.29 236.65,-67.12 274.5,-71 277.01,-71.26 279.59,-71.58 282.19,-71.94"/>
<polygon fill="black" stroke="black" points="281.54,-75.38 291.97,-73.51 282.65,-68.47 281.54,-75.38"/>
<text text-anchor="middle" x="173.25" y="-68.45" font-family="Helvetica,sans-Serif" font-size="14.00">9</text>
</g>
<!-- D -->
<g id="node5" class="node">
<title>D</title>
<ellipse fill="none" stroke="black" cx="124.5" cy="-95" rx="27" ry="18"/>
<text text-anchor="middle" x="124.5" y="-89.58" font-family="Helvetica,sans-Serif" font-size="14.00">D</text>
</g>
<!-- B&#45;&gt;D -->
<g id="edge7" class="edge">
<title>B&#45;&gt;D</title>
<path fill="none" stroke="black" d="M54.35,-97.17C64.06,-96.87 75.25,-96.52 85.77,-96.19"/>
<polygon fill="black" stroke="black" points="85.84,-99.68 95.72,-95.87 85.62,-92.69 85.84,-99.68"/>
<text text-anchor="middle" x="75.75" y="-98.45" font-family="Helvetica,sans-Serif" font-size="14.00">3</text>
</g>
<!-- F&#45;&gt;A -->
<g id="edge15" class="edge">
<title>F&#45;&gt;A</title>
<path fill="none" stroke="black" d="M234.96,-102.11C242.91,-92.94 254.2,-82.27 267,-77.25 271.72,-75.4 276.87,-74.46 282.04,-74.1"/>
<polygon fill="black" stroke="black" points="281.66,-77.6 291.68,-74.16 281.7,-70.6 281.66,-77.6"/>
<text text-anchor="middle" x="270.75" y="-79.45" font-family="Helvetica,sans-Serif" font-size="14.00">5</text>
</g>
<!-- E&#45;&gt;B -->
<g id="edge2" class="edge">
<title>E&#45;&gt;B</title>
<path fill="none" stroke="black" d="M503.49,-62.25C488.21,-39.06 456.73,0 418,0 123.5,0 123.5,0 123.5,0 83.93,0 55.43,-41.48 40.34,-70.47"/>
<polygon fill="black" stroke="black" points="37.35,-68.61 36.06,-79.12 43.63,-71.71 37.35,-68.61"/>
<text text-anchor="middle" x="270.75" y="-2.45" font-family="Helvetica,sans-Serif" font-size="14.00">9</text>
</g>
<!-- E&#45;&gt;A -->
<g id="edge11" class="edge">
<title>E&#45;&gt;A</title>
<path fill="none" stroke="black" d="M487.48,-75.55C481.58,-74.91 475.33,-74.33 469.5,-74 422.91,-71.36 411.09,-71.36 364.5,-74 362.31,-74.12 360.07,-74.28 357.8,-74.47"/>
<polygon fill="black" stroke="black" points="357.64,-70.96 348.02,-75.41 358.31,-77.93 357.64,-70.96"/>
<text text-anchor="middle" x="417" y="-74.45" font-family="Helvetica,sans-Serif" font-size="14.00">8</text>
</g>
<!-- C -->
<g id="node6" class="node">
<title>C</title>
<ellipse fill="none" stroke="black" cx="417" cy="-118" rx="27" ry="18"/>
<text text-anchor="middle" x="417" y="-112.58" font-family="Helvetica,sans-Serif" font-size="14.00">C</text>
</g>
<!-- E&#45;&gt;C -->
<g id="edge12" class="edge">
<title>E&#45;&gt;C</title>
<path fill="none" stroke="black" d="M487.42,-76.25C479.07,-76.25 469.93,-77.2 462,-80.25 453.73,-83.43 445.95,-88.88 439.29,-94.67"/>
<polygon fill="black" stroke="black" points="436.9,-92.11 432.08,-101.55 441.73,-97.18 436.9,-92.11"/>
<text text-anchor="middle" x="465.75" y="-82.45" font-family="Helvetica,sans-Serif" font-size="14.00">1</text>
</g>
<!-- A&#45;&gt;F -->
<g id="edge4" class="edge">
<title>A&#45;&gt;F</title>
<path fill="none" stroke="black" d="M296.03,-88.18C284.16,-93.02 269.37,-99.06 256.21,-104.44"/>
<polygon fill="black" stroke="black" points="254.97,-101.16 247.03,-108.19 257.61,-107.64 254.97,-101.16"/>
<text text-anchor="middle" x="270.75" y="-101.45" font-family="Helvetica,sans-Serif" font-size="14.00">4</text>
</g>
<!-- A&#45;&gt;C -->
<g id="edge6" class="edge">
<title>A&#45;&gt;C</title>
<path fill="none" stroke="black" d="M346.58,-76.25C354.93,-76.25 364.07,-77.2 372,-80.25 380.27,-83.43 388.05,-88.88 394.71,-94.67"/>
<polygon fill="black" stroke="black" points="392.27,-97.18 401.92,-101.55 397.1,-92.11 392.27,-97.18"/>
<text text-anchor="middle" x="368.25" y="-82.45" font-family="Helvetica,sans-Serif" font-size="14.00">6</text>
</g>
<!-- D&#45;&gt;B -->
<g id="edge5" class="edge">
<title>D&#45;&gt;B</title>
<path fill="none" stroke="black" d="M102.4,-84.27C93.16,-80.79 82.13,-78.28 72,-80.25 68.08,-81.01 64.07,-82.12 60.14,-83.42"/>
<polygon fill="black" stroke="black" points="58.97,-80.12 50.84,-86.91 61.44,-86.67 58.97,-80.12"/>
<text text-anchor="middle" x="75.75" y="-82.45" font-family="Helvetica,sans-Serif" font-size="14.00">4</text>
</g>
<!-- D&#45;&gt;F -->
<g id="edge8" class="edge">
<title>D&#45;&gt;F</title>
<path fill="none" stroke="black" d="M150.09,-100.92C160.82,-103.51 173.59,-106.58 185.33,-109.41"/>
<polygon fill="black" stroke="black" points="184.14,-112.72 194.69,-111.66 185.78,-105.92 184.14,-112.72"/>
<text text-anchor="middle" x="173.25" y="-109.45" font-family="Helvetica,sans-Serif" font-size="14.00">1</text>
</g>
<!-- C&#45;&gt;F -->
<g id="edge14" class="edge">
<title>C&#45;&gt;F</title>
<path fill="none" stroke="black" d="M389.94,-118.69C384.04,-118.82 377.81,-118.93 372,-119 325.34,-119.53 313.66,-119.53 267,-119 264.82,-118.98 262.58,-118.94 260.33,-118.91"/>
<polygon fill="black" stroke="black" points="260.64,-115.41 250.57,-118.72 260.5,-122.41 260.64,-115.41"/>
<text text-anchor="middle" x="319.5" y="-121.45" font-family="Helvetica,sans-Serif" font-size="14.00">1</text>
</g>
<!-- C&#45;&gt;E -->
<g id="edge13" class="edge">
<title>C&#45;&gt;E</title>
<path fill="none" stroke="black" d="M440.63,-108.76C452.53,-103.9 467.33,-97.86 480.47,-92.49"/>
<polygon fill="black" stroke="black" points="481.69,-95.77 489.63,-88.75 479.05,-89.29 481.69,-95.77"/>
<text text-anchor="middle" x="465.75" y="-101.45" font-family="Helvetica,sans-Serif" font-size="14.00">4</text>
</g>
<!-- C&#45;&gt;A -->
<g id="edge10" class="edge">
<title>C&#45;&gt;A</title>
<path fill="none" stroke="black" d="M393.53,-108.82C381.66,-103.98 366.87,-97.94 353.71,-92.56"/>
<polygon fill="black" stroke="black" points="355.11,-89.36 344.53,-88.81 352.47,-95.84 355.11,-89.36"/>
<text text-anchor="middle" x="368.25" y="-101.45" font-family="Helvetica,sans-Serif" font-size="14.00">1</text>
</g>
</g>
</svg>
