<?xml version="1.0" encoding="UTF-8" standalone="no"?>
<!DOCTYPE svg PUBLIC "-//W3C//DTD SVG 1.1//EN"
 "http://www.w3.org/Graphics/SVG/1.1/DTD/svg11.dtd">
<!-- Generated by graphviz version 12.0.0 (0)
 -->
<!-- Title: graphe031 Pages: 1 -->
<svg width="257pt" height="107pt"
 viewBox="0.00 0.00 257.00 106.75" xmlns="http://www.w3.org/2000/svg" xmlns:xlink="http://www.w3.org/1999/xlink">
<g id="graph0" class="graph" transform="scale(1 1) rotate(0) translate(4 102.75)">
<title>graphe031</title>
<polygon fill="white" stroke="none" points="-4,4 -4,-102.75 253,-102.75 253,4 -4,4"/>
<!-- A -->
<g id="node1" class="node">
<title>A</title>
<ellipse fill="none" stroke="black" cx="27" cy="-18" rx="27" ry="18"/>
<text text-anchor="middle" x="27" y="-12.57" font-family="Helvetica,sans-Serif" font-size="14.00">A</text>
</g>
<!-- B -->
<g id="node2" class="node">
<title>B</title>
<ellipse fill="none" stroke="black" cx="124.5" cy="-47" rx="27" ry="18"/>
<text text-anchor="middle" x="124.5" y="-41.58" font-family="Helvetica,sans-Serif" font-size="14.00">B</text>
</g>
<!-- A&#45;&gt;B -->
<g id="edge1" class="edge">
<title>A&#45;&gt;B</title>
<path fill="none" stroke="black" d="M50.62,-27.44C57.43,-30.09 64.96,-32.83 72,-35 76.87,-36.5 82.05,-37.91 87.17,-39.21"/>
<polygon fill="black" stroke="black" points="86.15,-42.56 96.69,-41.49 87.78,-35.75 86.15,-42.56"/>
<text text-anchor="middle" x="75.75" y="-39.45" font-family="Helvetica,sans-Serif" font-size="14.00">6</text>
</g>
<!-- C -->
<g id="node3" class="node">
<title>C</title>
<ellipse fill="none" stroke="black" cx="222" cy="-18" rx="27" ry="18"/>
<text text-anchor="middle" x="222" y="-12.57" font-family="Helvetica,sans-Serif" font-size="14.00">C</text>
</g>
<!-- A&#45;&gt;C -->
<g id="edge3" class="edge">
<title>A&#45;&gt;C</title>
<path fill="none" stroke="black" d="M53.11,-12.78C59.29,-11.52 65.88,-10.2 72,-9 83.31,-6.79 86.02,-5.31 97.5,-4.25 121.4,-2.04 127.61,-1.91 151.5,-4.25 162.47,-5.32 174.27,-7.33 184.98,-9.49"/>
<polygon fill="black" stroke="black" points="184.09,-12.88 194.6,-11.53 185.55,-6.03 184.09,-12.88"/>
<text text-anchor="middle" x="124.5" y="-6.45" font-family="Helvetica,sans-Serif" font-size="14.00">8</text>
</g>
<!-- B&#45;&gt;A -->
<g id="edge6" class="edge">
<title>B&#45;&gt;A</title>
<path fill="none" stroke="black" d="M108.15,-32.25C100.25,-25.68 90.08,-18.67 79.5,-15.25 74.85,-13.75 69.84,-13.01 64.84,-12.78"/>
<polygon fill="black" stroke="black" points="64.79,-9.28 54.87,-13.01 64.95,-16.28 64.79,-9.28"/>
<text text-anchor="middle" x="75.75" y="-17.45" font-family="Helvetica,sans-Serif" font-size="14.00">8</text>
</g>
<!-- B&#45;&gt;B -->
<g id="edge5" class="edge">
<title>B&#45;&gt;B</title>
<path fill="none" stroke="black" d="M115.8,-64.41C114.17,-74.09 117.07,-83 124.5,-83 128.79,-83 131.57,-80.02 132.84,-75.64"/>
<polygon fill="black" stroke="black" points="136.33,-76.03 133.15,-65.92 129.34,-75.81 136.33,-76.03"/>
<text text-anchor="middle" x="124.5" y="-85.45" font-family="Helvetica,sans-Serif" font-size="14.00">3</text>
</g>
<!-- B&#45;&gt;C -->
<g id="edge4" class="edge">
<title>B&#45;&gt;C</title>
<path fill="none" stroke="black" d="M150.83,-41.84C159.23,-39.93 168.58,-37.59 177,-35 180.52,-33.92 184.17,-32.69 187.78,-31.4"/>
<polygon fill="black" stroke="black" points="188.82,-34.75 196.96,-27.97 186.37,-28.19 188.82,-34.75"/>
<text text-anchor="middle" x="173.25" y="-39.45" font-family="Helvetica,sans-Serif" font-size="14.00">3</text>
</g>
<!-- C&#45;&gt;B -->
<g id="edge2" class="edge">
<title>C&#45;&gt;B</title>
<path fill="none" stroke="black" d="M194.9,-15.95C186.63,-16 177.55,-16.82 169.5,-19.25 163.45,-21.08 157.42,-23.98 151.85,-27.24"/>
<polygon fill="black" stroke="black" points="150.2,-24.14 143.68,-32.49 153.99,-30.02 150.2,-24.14"/>
<text text-anchor="middle" x="173.25" y="-21.45" font-family="Helvetica,sans-Serif" font-size="14.00">1</text>
</g>
</g>
</svg>
