<?xml version="1.0" encoding="UTF-8" standalone="no"?>
<!DOCTYPE svg PUBLIC "-//W3C//DTD SVG 1.1//EN"
 "http://www.w3.org/Graphics/SVG/1.1/DTD/svg11.dtd">
<!-- Generated by graphviz version 12.0.0 (0)
 -->
<!-- Title: graphe151 Pages: 1 -->
<svg width="1181pt" height="696pt"
 viewBox="0.00 0.00 1181.00 695.75" xmlns="http://www.w3.org/2000/svg" xmlns:xlink="http://www.w3.org/1999/xlink">
<g id="graph0" class="graph" transform="scale(1 1) rotate(0) translate(4 691.75)">
<title>graphe151</title>
<polygon fill="white" stroke="none" points="-4,4 -4,-691.75 1177,-691.75 1177,4 -4,4"/>
<!-- D -->
<g id="node1" class="node">
<title>D</title>
<ellipse fill="red" stroke="red" cx="27" cy="-205" rx="27" ry="18"/>
<text text-anchor="middle" x="27" y="-199.57" font-family="Helvetica,sans-Serif" font-weight="bold" font-size="14.00" fill="white">D</text>
</g>
<!-- K -->
<g id="node2" class="node">
<title>K</title>
<ellipse fill="red" stroke="red" cx="124.5" cy="-457" rx="27" ry="18"/>
<text text-anchor="middle" x="124.5" y="-451.57" font-family="Helvetica,sans-Serif" font-weight="bold" font-size="14.00" fill="white">K</text>
</g>
<!-- D&#45;&gt;K -->
<g id="edge1" class="edge">
<title>D&#45;&gt;K</title>
<path fill="none" stroke="red" stroke-width="2" d="M34.72,-222.72C50.91,-265.47 92.27,-374.6 112.3,-427.45"/>
<polygon fill="red" stroke="red" stroke-width="2" points="108.9,-428.36 115.72,-436.47 115.45,-425.88 108.9,-428.36"/>
<text text-anchor="middle" x="75.75" y="-340.45" font-family="Helvetica,sans-Serif" font-size="14.00" fill="red">2</text>
</g>
<!-- O -->
<g id="node7" class="node">
<title>O</title>
<ellipse fill="red" stroke="red" cx="879" cy="-46" rx="27" ry="18"/>
<text text-anchor="middle" x="879" y="-40.58" font-family="Helvetica,sans-Serif" font-weight="bold" font-size="14.00" fill="white">O</text>
</g>
<!-- D&#45;&gt;O -->
<g id="edge34" class="edge">
<title>D&#45;&gt;O</title>
<path fill="none" stroke="black" d="M28.18,-186.81C29.72,-136.64 41.44,0 123.5,0 123.5,0 123.5,0 759.25,0 791.65,0 825.87,-15.08 849.21,-27.97"/>
<polygon fill="black" stroke="black" points="847.4,-30.96 857.81,-32.92 850.89,-24.89 847.4,-30.96"/>
<text text-anchor="middle" x="417" y="-2.45" font-family="Helvetica,sans-Serif" font-size="14.00">8</text>
</g>
<!-- N -->
<g id="node4" class="node">
<title>N</title>
<ellipse fill="red" stroke="red" cx="222" cy="-254" rx="27" ry="18"/>
<text text-anchor="middle" x="222" y="-248.57" font-family="Helvetica,sans-Serif" font-weight="bold" font-size="14.00" fill="white">N</text>
</g>
<!-- K&#45;&gt;N -->
<g id="edge47" class="edge">
<title>K&#45;&gt;N</title>
<path fill="none" stroke="black" d="M125.08,-438.52C125.26,-403.34 130.43,-325.98 169.5,-278.25 173.87,-272.91 179.69,-268.68 185.84,-265.35"/>
<polygon fill="black" stroke="black" points="187.3,-268.53 194.93,-261.19 184.38,-262.17 187.3,-268.53"/>
<text text-anchor="middle" x="173.25" y="-280.45" font-family="Helvetica,sans-Serif" font-size="14.00">2</text>
</g>
<!-- J -->
<g id="node8" class="node">
<title>J</title>
<ellipse fill="red" stroke="red" cx="319.5" cy="-249" rx="27" ry="18"/>
<text text-anchor="middle" x="319.5" y="-243.57" font-family="Helvetica,sans-Serif" font-weight="bold" font-size="14.00" fill="white">J</text>
</g>
<!-- K&#45;&gt;J -->
<g id="edge29" class="edge">
<title>K&#45;&gt;J</title>
<path fill="none" stroke="black" d="M139.69,-441.71C173.08,-405.72 256.8,-315.5 296.7,-272.5"/>
<polygon fill="black" stroke="black" points="299.02,-275.14 303.26,-265.43 293.89,-270.38 299.02,-275.14"/>
<text text-anchor="middle" x="222" y="-382.45" font-family="Helvetica,sans-Serif" font-size="14.00">3</text>
</g>
<!-- H -->
<g id="node9" class="node">
<title>H</title>
<ellipse fill="red" stroke="red" cx="514.5" cy="-468" rx="27" ry="18"/>
<text text-anchor="middle" x="514.5" y="-462.57" font-family="Helvetica,sans-Serif" font-weight="bold" font-size="14.00" fill="white">H</text>
</g>
<!-- K&#45;&gt;H -->
<g id="edge36" class="edge">
<title>K&#45;&gt;H</title>
<path fill="none" stroke="red" stroke-width="2" d="M148.29,-465.7C167.41,-472.21 195.59,-480 221,-480 221,-480 221,-480 418,-480 436.95,-480 457.85,-477.65 475.25,-475.02"/>
<polygon fill="red" stroke="red" stroke-width="2" points="475.77,-478.48 485.08,-473.43 474.65,-471.57 475.77,-478.48"/>
<text text-anchor="middle" x="319.5" y="-482.45" font-family="Helvetica,sans-Serif" font-size="14.00" fill="red">2</text>
</g>
<!-- I -->
<g id="node3" class="node">
<title>I</title>
<ellipse fill="none" stroke="black" cx="417" cy="-314" rx="27" ry="18"/>
<text text-anchor="middle" x="417" y="-308.57" font-family="Helvetica,sans-Serif" font-size="14.00">I</text>
</g>
<!-- I&#45;&gt;N -->
<g id="edge2" class="edge">
<title>I&#45;&gt;N</title>
<path fill="none" stroke="black" d="M390.78,-308.93C360.78,-302.55 309.44,-290.52 267,-275 262.74,-273.44 258.33,-271.62 254.03,-269.7"/>
<polygon fill="black" stroke="black" points="255.6,-266.57 245.06,-265.51 252.64,-272.91 255.6,-266.57"/>
<text text-anchor="middle" x="319.5" y="-300.45" font-family="Helvetica,sans-Serif" font-size="14.00">9</text>
</g>
<!-- I&#45;&gt;H -->
<g id="edge24" class="edge">
<title>I&#45;&gt;H</title>
<path fill="none" stroke="black" d="M431.09,-329.71C442.02,-343.2 457.67,-363.39 469.5,-382.25 481.36,-401.15 492.8,-423.62 501.04,-440.82"/>
<polygon fill="black" stroke="black" points="497.65,-441.85 505.09,-449.4 503.99,-438.86 497.65,-441.85"/>
<text text-anchor="middle" x="465.75" y="-384.45" font-family="Helvetica,sans-Serif" font-size="14.00">8</text>
</g>
<!-- N&#45;&gt;O -->
<g id="edge14" class="edge">
<title>N&#45;&gt;O</title>
<path fill="none" stroke="black" d="M223.94,-235.92C226.39,-207.67 235.22,-153.07 267,-122 348.98,-41.86 398.86,-46 513.5,-46 513.5,-46 513.5,-46 759.25,-46 786.29,-46 816.79,-46 840.1,-46"/>
<polygon fill="black" stroke="black" points="840.07,-49.5 850.07,-46 840.07,-42.5 840.07,-49.5"/>
<text text-anchor="middle" x="514.5" y="-48.45" font-family="Helvetica,sans-Serif" font-size="14.00">7</text>
</g>
<!-- N&#45;&gt;J -->
<g id="edge35" class="edge">
<title>N&#45;&gt;J</title>
<path fill="none" stroke="red" stroke-width="2" d="M249.22,-255.39C257.33,-255.58 266.29,-255.56 274.5,-255 276.37,-254.87 278.29,-254.72 280.23,-254.53"/>
<polygon fill="red" stroke="red" stroke-width="2" points="280.42,-258.04 289.96,-253.42 279.63,-251.08 280.42,-258.04"/>
<text text-anchor="middle" x="270.75" y="-257.45" font-family="Helvetica,sans-Serif" font-size="14.00" fill="red">7</text>
</g>
<!-- E -->
<g id="node5" class="node">
<title>E</title>
<ellipse fill="none" stroke="black" cx="807" cy="-268" rx="27" ry="18"/>
<text text-anchor="middle" x="807" y="-262.57" font-family="Helvetica,sans-Serif" font-size="14.00">E</text>
</g>
<!-- E&#45;&gt;I -->
<g id="edge3" class="edge">
<title>E&#45;&gt;I</title>
<path fill="none" stroke="black" d="M779.69,-267.87C721.53,-268.15 578.01,-271.91 462,-300 458.86,-300.76 455.62,-301.63 452.38,-302.55"/>
<polygon fill="black" stroke="black" points="451.58,-299.14 443.02,-305.39 453.61,-305.84 451.58,-299.14"/>
<text text-anchor="middle" x="612" y="-280.45" font-family="Helvetica,sans-Serif" font-size="14.00">5</text>
</g>
<!-- E&#45;&gt;J -->
<g id="edge5" class="edge">
<title>E&#45;&gt;J</title>
<path fill="none" stroke="black" d="M785.67,-256.9C758.85,-242.95 709.74,-219.77 664.5,-211 552.6,-189.31 417.66,-220.63 355.26,-238.31"/>
<polygon fill="black" stroke="black" points="354.56,-234.87 345.93,-241.01 356.51,-241.59 354.56,-234.87"/>
<text text-anchor="middle" x="563.25" y="-205.45" font-family="Helvetica,sans-Serif" font-size="14.00">2</text>
</g>
<!-- F -->
<g id="node14" class="node">
<title>F</title>
<ellipse fill="red" stroke="red" cx="1048.5" cy="-305" rx="27" ry="18"/>
<text text-anchor="middle" x="1048.5" y="-299.57" font-family="Helvetica,sans-Serif" font-weight="bold" font-size="14.00" fill="white">F</text>
</g>
<!-- E&#45;&gt;F -->
<g id="edge45" class="edge">
<title>E&#45;&gt;F</title>
<path fill="none" stroke="black" d="M833.63,-271.96C876.1,-278.52 961.25,-291.68 1010.33,-299.26"/>
<polygon fill="black" stroke="black" points="1009.78,-302.71 1020.2,-300.78 1010.85,-295.8 1009.78,-302.71"/>
<text text-anchor="middle" x="951" y="-295.45" font-family="Helvetica,sans-Serif" font-size="14.00">1</text>
</g>
<!-- B -->
<g id="node6" class="node">
<title>B</title>
<ellipse fill="red" stroke="red" cx="709.5" cy="-488" rx="27" ry="18"/>
<text text-anchor="middle" x="709.5" y="-482.57" font-family="Helvetica,sans-Serif" font-weight="bold" font-size="14.00" fill="white">B</text>
</g>
<!-- B&#45;&gt;K -->
<g id="edge10" class="edge">
<title>B&#45;&gt;K</title>
<path fill="none" stroke="black" d="M694.14,-503.23C681.11,-515.9 660.67,-533.11 639,-541 494.28,-593.69 445.49,-563.74 292.5,-546 235.79,-539.42 212.63,-546.4 169.5,-509 160.35,-501.06 151.48,-491.15 144.13,-482.12"/>
<polygon fill="black" stroke="black" points="146.94,-480.03 138,-474.33 141.43,-484.36 146.94,-480.03"/>
<text text-anchor="middle" x="417" y="-569.45" font-family="Helvetica,sans-Serif" font-size="14.00">7</text>
</g>
<!-- B&#45;&gt;N -->
<g id="edge39" class="edge">
<title>B&#45;&gt;N</title>
<path fill="none" stroke="black" d="M687.73,-499.08C647.77,-518.85 557.91,-555.73 487.5,-529 363.65,-481.98 271.88,-340.59 237.66,-280.98"/>
<polygon fill="black" stroke="black" points="240.82,-279.47 232.86,-272.48 234.73,-282.91 240.82,-279.47"/>
<text text-anchor="middle" x="465.75" y="-522.45" font-family="Helvetica,sans-Serif" font-size="14.00">4</text>
</g>
<!-- B&#45;&gt;E -->
<g id="edge16" class="edge">
<title>B&#45;&gt;E</title>
<path fill="none" stroke="black" d="M714.43,-470.09C720.8,-442.77 734.67,-389.41 754.5,-347.25 763.49,-328.13 776.47,-308.19 787.15,-293.09"/>
<polygon fill="black" stroke="black" points="789.86,-295.31 792.88,-285.16 784.19,-291.21 789.86,-295.31"/>
<text text-anchor="middle" x="758.25" y="-349.45" font-family="Helvetica,sans-Serif" font-size="14.00">6</text>
</g>
<!-- B&#45;&gt;O -->
<g id="edge4" class="edge">
<title>B&#45;&gt;O</title>
<path fill="none" stroke="black" d="M736.62,-486.3C765.35,-482.93 810.53,-472.88 834,-443 856.61,-414.22 871.85,-162.96 876.5,-75.7"/>
<polygon fill="black" stroke="black" points="879.99,-75.97 877.02,-65.8 873,-75.61 879.99,-75.97"/>
<text text-anchor="middle" x="758.25" y="-485.45" font-family="Helvetica,sans-Serif" font-size="14.00">8</text>
</g>
<!-- G -->
<g id="node10" class="node">
<title>G</title>
<ellipse fill="red" stroke="red" cx="807" cy="-416" rx="27" ry="18"/>
<text text-anchor="middle" x="807" y="-410.57" font-family="Helvetica,sans-Serif" font-weight="bold" font-size="14.00" fill="white">G</text>
</g>
<!-- B&#45;&gt;G -->
<g id="edge18" class="edge">
<title>B&#45;&gt;G</title>
<path fill="none" stroke="red" stroke-width="2" d="M726.41,-473.53C734.6,-466.29 744.87,-457.54 754.5,-450.25 761.24,-445.15 768.71,-439.94 775.82,-435.18"/>
<polygon fill="red" stroke="red" stroke-width="2" points="777.57,-438.22 784.01,-429.8 773.73,-432.37 777.57,-438.22"/>
<text text-anchor="middle" x="758.25" y="-452.45" font-family="Helvetica,sans-Serif" font-size="14.00" fill="red">6</text>
</g>
<!-- A -->
<g id="node12" class="node">
<title>A</title>
<ellipse fill="red" stroke="red" cx="1146" cy="-459" rx="27" ry="18"/>
<text text-anchor="middle" x="1146" y="-453.57" font-family="Helvetica,sans-Serif" font-weight="bold" font-size="14.00" fill="white">A</text>
</g>
<!-- B&#45;&gt;A -->
<g id="edge9" class="edge">
<title>B&#45;&gt;A</title>
<path fill="none" stroke="black" d="M719.02,-505.16C733.21,-531.02 764.3,-577 806,-577 806,-577 806,-577 1049.5,-577 1095.4,-577 1123.04,-522.39 1136.03,-487.47"/>
<polygon fill="black" stroke="black" points="1139.22,-488.94 1139.24,-478.35 1132.62,-486.62 1139.22,-488.94"/>
<text text-anchor="middle" x="951" y="-579.45" font-family="Helvetica,sans-Serif" font-size="14.00">8</text>
</g>
<!-- C -->
<g id="node15" class="node">
<title>C</title>
<ellipse fill="none" stroke="black" cx="807" cy="-531" rx="27" ry="18"/>
<text text-anchor="middle" x="807" y="-525.58" font-family="Helvetica,sans-Serif" font-size="14.00">C</text>
</g>
<!-- B&#45;&gt;C -->
<g id="edge42" class="edge">
<title>B&#45;&gt;C</title>
<path fill="none" stroke="black" d="M732.65,-497.97C744.82,-503.45 760.15,-510.36 773.64,-516.43"/>
<polygon fill="black" stroke="black" points="772.04,-519.55 782.59,-520.46 774.91,-513.16 772.04,-519.55"/>
<text text-anchor="middle" x="758.25" y="-512.45" font-family="Helvetica,sans-Serif" font-size="14.00">4</text>
</g>
<!-- O&#45;&gt;F -->
<g id="edge33" class="edge">
<title>O&#45;&gt;F</title>
<path fill="none" stroke="red" stroke-width="2" d="M904.99,-40.73C926.4,-37.69 957.02,-37.05 978,-52.25 1014.15,-78.44 1035.71,-212.9 1043.81,-274.32"/>
<polygon fill="red" stroke="red" stroke-width="2" points="1040.3,-274.45 1045.03,-283.92 1047.24,-273.56 1040.3,-274.45"/>
<text text-anchor="middle" x="951" y="-55.45" font-family="Helvetica,sans-Serif" font-size="14.00" fill="red">4</text>
</g>
<!-- J&#45;&gt;D -->
<g id="edge41" class="edge">
<title>J&#45;&gt;D</title>
<path fill="none" stroke="red" stroke-width="2" d="M295.7,-240.22C282.3,-235.46 264.93,-229.96 249,-227 185.96,-215.3 111.56,-209.51 67.17,-206.9"/>
<polygon fill="red" stroke="red" stroke-width="2" points="67.6,-203.42 57.42,-206.36 67.21,-210.41 67.6,-203.42"/>
<text text-anchor="middle" x="173.25" y="-218.45" font-family="Helvetica,sans-Serif" font-size="14.00" fill="red">3</text>
</g>
<!-- J&#45;&gt;I -->
<g id="edge20" class="edge">
<title>J&#45;&gt;I</title>
<path fill="none" stroke="black" d="M338.91,-261.53C352.83,-271 372.17,-284.17 388,-294.94"/>
<polygon fill="black" stroke="black" points="385.83,-297.7 396.07,-300.43 389.77,-291.91 385.83,-297.7"/>
<text text-anchor="middle" x="368.25" y="-285.45" font-family="Helvetica,sans-Serif" font-size="14.00">8</text>
</g>
<!-- J&#45;&gt;N -->
<g id="edge23" class="edge">
<title>J&#45;&gt;N</title>
<path fill="none" stroke="black" d="M294.96,-241.04C286.2,-239 276.16,-237.76 267,-239.25 263.53,-239.82 259.97,-240.62 256.45,-241.56"/>
<polygon fill="black" stroke="black" points="255.47,-238.2 246.93,-244.47 257.52,-244.89 255.47,-238.2"/>
<text text-anchor="middle" x="270.75" y="-241.45" font-family="Helvetica,sans-Serif" font-size="14.00">4</text>
</g>
<!-- H&#45;&gt;D -->
<g id="edge12" class="edge">
<title>H&#45;&gt;D</title>
<path fill="none" stroke="black" d="M498.23,-482.65C489.86,-490.58 479.24,-500.47 469.5,-509 458.79,-518.39 285.99,-672 271.75,-672 123.5,-672 123.5,-672 123.5,-672 33.84,-672 27.54,-337.4 27.72,-234.65"/>
<polygon fill="black" stroke="black" points="31.22,-234.84 27.76,-224.82 24.22,-234.81 31.22,-234.84"/>
<text text-anchor="middle" x="270.75" y="-674.45" font-family="Helvetica,sans-Serif" font-size="14.00">9</text>
</g>
<!-- H&#45;&gt;K -->
<g id="edge11" class="edge">
<title>H&#45;&gt;K</title>
<path fill="none" stroke="black" d="M495.59,-481.26C487.94,-486.19 478.68,-491.25 469.5,-494 341.78,-532.28 293.62,-542.71 169.5,-494 161.45,-490.84 153.81,-485.58 147.23,-480.01"/>
<polygon fill="black" stroke="black" points="149.79,-477.62 140.07,-473.41 145.05,-482.76 149.79,-477.62"/>
<text text-anchor="middle" x="319.5" y="-528.45" font-family="Helvetica,sans-Serif" font-size="14.00">4</text>
</g>
<!-- H&#45;&gt;I -->
<g id="edge6" class="edge">
<title>H&#45;&gt;I</title>
<path fill="none" stroke="black" d="M499.87,-452.38C488.9,-439.41 473.48,-420.19 462,-402 449.77,-382.62 438.27,-359.39 430.1,-341.66"/>
<polygon fill="black" stroke="black" points="433.4,-340.46 426.09,-332.8 427.02,-343.35 433.4,-340.46"/>
<text text-anchor="middle" x="465.75" y="-413.45" font-family="Helvetica,sans-Serif" font-size="14.00">1</text>
</g>
<!-- H&#45;&gt;N -->
<g id="edge19" class="edge">
<title>H&#45;&gt;N</title>
<path fill="none" stroke="black" d="M493.46,-456.44C454.2,-433.76 370.44,-385.28 364.5,-381 329.98,-356.17 324.14,-346.4 292.5,-318 277.18,-304.25 260.18,-288.6 246.82,-276.21"/>
<polygon fill="black" stroke="black" points="249.45,-273.87 239.74,-269.63 244.68,-279 249.45,-273.87"/>
<text text-anchor="middle" x="368.25" y="-387.45" font-family="Helvetica,sans-Serif" font-size="14.00">1</text>
</g>
<!-- H&#45;&gt;B -->
<g id="edge7" class="edge">
<title>H&#45;&gt;B</title>
<path fill="none" stroke="red" stroke-width="2" d="M541.53,-470.7C574.57,-474.12 631.85,-480.06 669.97,-484.01"/>
<polygon fill="red" stroke="red" stroke-width="2" points="669.26,-487.45 679.57,-485 669.98,-480.49 669.26,-487.45"/>
<text text-anchor="middle" x="612" y="-482.45" font-family="Helvetica,sans-Serif" font-size="14.00" fill="red">1</text>
</g>
<!-- H&#45;&gt;H -->
<g id="edge44" class="edge">
<title>H&#45;&gt;H</title>
<path fill="none" stroke="black" d="M505.8,-485.41C504.17,-495.09 507.07,-504 514.5,-504 518.79,-504 521.57,-501.02 522.84,-496.64"/>
<polygon fill="black" stroke="black" points="526.33,-497.03 523.15,-486.92 519.34,-496.81 526.33,-497.03"/>
<text text-anchor="middle" x="514.5" y="-506.45" font-family="Helvetica,sans-Serif" font-size="14.00">4</text>
</g>
<!-- H&#45;&gt;A -->
<g id="edge40" class="edge">
<title>H&#45;&gt;A</title>
<path fill="none" stroke="black" d="M523.08,-485.26C544.7,-531.55 611.46,-655 708.5,-655 708.5,-655 708.5,-655 1049.5,-655 1122.52,-655 1139.72,-543.7 1143.76,-488.84"/>
<polygon fill="black" stroke="black" points="1147.25,-489.15 1144.38,-478.95 1140.26,-488.71 1147.25,-489.15"/>
<text text-anchor="middle" x="807" y="-657.45" font-family="Helvetica,sans-Serif" font-size="14.00">5</text>
</g>
<!-- M -->
<g id="node13" class="node">
<title>M</title>
<ellipse fill="none" stroke="black" cx="612" cy="-370" rx="27" ry="18"/>
<text text-anchor="middle" x="612" y="-364.57" font-family="Helvetica,sans-Serif" font-size="14.00">M</text>
</g>
<!-- H&#45;&gt;M -->
<g id="edge15" class="edge">
<title>H&#45;&gt;M</title>
<path fill="none" stroke="black" d="M520.69,-450.1C526.96,-431.56 539.26,-403 559.5,-386.25 563.95,-382.57 569.23,-379.72 574.69,-377.52"/>
<polygon fill="black" stroke="black" points="575.42,-380.96 583.81,-374.49 573.22,-374.32 575.42,-380.96"/>
<text text-anchor="middle" x="563.25" y="-388.45" font-family="Helvetica,sans-Serif" font-size="14.00">1</text>
</g>
<!-- G&#45;&gt;I -->
<g id="edge48" class="edge">
<title>G&#45;&gt;I</title>
<path fill="none" stroke="black" d="M802.54,-398.06C797.51,-377.46 786.03,-344.51 762,-329 712.31,-296.94 533.97,-305.47 455.5,-311.01"/>
<polygon fill="black" stroke="black" points="455.46,-307.5 445.75,-311.72 455.97,-314.48 455.46,-307.5"/>
<text text-anchor="middle" x="612" y="-308.45" font-family="Helvetica,sans-Serif" font-size="14.00">5</text>
</g>
<!-- G&#45;&gt;N -->
<g id="edge46" class="edge">
<title>G&#45;&gt;N</title>
<path fill="none" stroke="black" d="M801.13,-398.16C794.82,-377.67 782.18,-343.92 762,-321 753.16,-310.96 748.51,-310.9 736.5,-305 614.21,-244.86 578.95,-231.99 444,-213 377.21,-203.6 357.65,-204.54 292.5,-222 279.24,-225.55 265.36,-231.45 253.52,-237.23"/>
<polygon fill="black" stroke="black" points="251.97,-234.09 244.64,-241.74 255.14,-240.33 251.97,-234.09"/>
<text text-anchor="middle" x="514.5" y="-231.45" font-family="Helvetica,sans-Serif" font-size="14.00">7</text>
</g>
<!-- G&#45;&gt;H -->
<g id="edge43" class="edge">
<title>G&#45;&gt;H</title>
<path fill="none" stroke="black" d="M780.16,-412.39C750.24,-408.93 699.6,-405.3 657,-413.25 617.45,-420.63 574.73,-438.69 546.7,-452.06"/>
<polygon fill="black" stroke="black" points="545.17,-448.91 537.71,-456.44 548.23,-455.21 545.17,-448.91"/>
<text text-anchor="middle" x="660.75" y="-415.45" font-family="Helvetica,sans-Serif" font-size="14.00">7</text>
</g>
<!-- L -->
<g id="node11" class="node">
<title>L</title>
<ellipse fill="red" stroke="red" cx="951" cy="-370" rx="27" ry="18"/>
<text text-anchor="middle" x="951" y="-364.57" font-family="Helvetica,sans-Serif" font-weight="bold" font-size="14.00" fill="white">L</text>
</g>
<!-- G&#45;&gt;L -->
<g id="edge8" class="edge">
<title>G&#45;&gt;L</title>
<path fill="none" stroke="red" stroke-width="2" d="M831.77,-408.3C854.19,-401.04 888.12,-390.05 913.89,-381.7"/>
<polygon fill="red" stroke="red" stroke-width="2" points="914.84,-385.07 923.28,-378.66 912.68,-378.41 914.84,-385.07"/>
<text text-anchor="middle" x="879" y="-403.45" font-family="Helvetica,sans-Serif" font-size="14.00" fill="red">3</text>
</g>
<!-- G&#45;&gt;F -->
<g id="edge26" class="edge">
<title>G&#45;&gt;F</title>
<path fill="none" stroke="black" d="M833.72,-420.3C869.53,-424.81 934.87,-427.56 978,-397 1001.89,-380.07 1021.17,-352.45 1033.31,-331.88"/>
<polygon fill="black" stroke="black" points="1036.2,-333.89 1038.09,-323.46 1030.11,-330.43 1036.2,-333.89"/>
<text text-anchor="middle" x="951" y="-420.45" font-family="Helvetica,sans-Serif" font-size="14.00">6</text>
</g>
<!-- L&#45;&gt;D -->
<g id="edge31" class="edge">
<title>L&#45;&gt;D</title>
<path fill="none" stroke="black" d="M937.95,-354.1C918.06,-328.46 876.33,-277.23 834,-241 634.55,-70.31 534.27,-60 271.75,-60 123.5,-60 123.5,-60 123.5,-60 68.53,-60 43.42,-133.57 33.52,-175.9"/>
<polygon fill="black" stroke="black" points="30.15,-174.93 31.44,-185.45 36.98,-176.42 30.15,-174.93"/>
<text text-anchor="middle" x="465.75" y="-69.45" font-family="Helvetica,sans-Serif" font-size="14.00">1</text>
</g>
<!-- L&#45;&gt;A -->
<g id="edge30" class="edge">
<title>L&#45;&gt;A</title>
<path fill="none" stroke="black" d="M973.76,-380.04C1007.65,-395.66 1073.2,-425.89 1112.64,-444.08"/>
<polygon fill="black" stroke="black" points="1111.1,-447.22 1121.64,-448.23 1114.03,-440.86 1111.1,-447.22"/>
<text text-anchor="middle" x="1048.5" y="-428.45" font-family="Helvetica,sans-Serif" font-size="14.00">8</text>
</g>
<!-- L&#45;&gt;M -->
<g id="edge17" class="edge">
<title>L&#45;&gt;M</title>
<path fill="none" stroke="black" d="M923.68,-370C864.24,-370 719.48,-370 650.6,-370"/>
<polygon fill="black" stroke="black" points="650.96,-366.5 640.96,-370 650.96,-373.5 650.96,-366.5"/>
<text text-anchor="middle" x="758.25" y="-372.45" font-family="Helvetica,sans-Serif" font-size="14.00">1</text>
</g>
<!-- L&#45;&gt;F -->
<g id="edge38" class="edge">
<title>L&#45;&gt;F</title>
<path fill="none" stroke="black" d="M970.41,-357.47C984.33,-348 1003.67,-334.83 1019.5,-324.06"/>
<polygon fill="black" stroke="black" points="1021.27,-327.09 1027.57,-318.57 1017.33,-321.3 1021.27,-327.09"/>
<text text-anchor="middle" x="999.75" y="-341.45" font-family="Helvetica,sans-Serif" font-size="14.00">8</text>
</g>
<!-- A&#45;&gt;O -->
<g id="edge13" class="edge">
<title>A&#45;&gt;O</title>
<path fill="none" stroke="red" stroke-width="2" d="M1141.87,-440.81C1131.01,-381.47 1090.75,-189.85 1003.5,-58.25 995.02,-45.47 992.3,-40.54 978,-35 955.62,-26.33 947.82,-32.07 924,-35 921.54,-35.3 919.02,-35.7 916.49,-36.16"/>
<polygon fill="red" stroke="red" stroke-width="2" points="915.99,-32.68 906.96,-38.23 917.48,-39.52 915.99,-32.68"/>
<text text-anchor="middle" x="999.75" y="-61.45" font-family="Helvetica,sans-Serif" font-size="14.00" fill="red">8</text>
</g>
<!-- M&#45;&gt;K -->
<g id="edge21" class="edge">
<title>M&#45;&gt;K</title>
<path fill="none" stroke="black" d="M585.51,-365.37C540.45,-358 443.97,-345.92 364.5,-361.25 323.04,-369.25 212.63,-417.58 157.6,-442.36"/>
<polygon fill="black" stroke="black" points="156.42,-439.06 148.75,-446.37 159.3,-445.44 156.42,-439.06"/>
<text text-anchor="middle" x="368.25" y="-363.45" font-family="Helvetica,sans-Serif" font-size="14.00">2</text>
</g>
<!-- M&#45;&gt;B -->
<g id="edge37" class="edge">
<title>M&#45;&gt;B</title>
<path fill="none" stroke="black" d="M623.6,-386.52C632.15,-399.5 644.74,-417.87 657,-433 665.83,-443.89 676.29,-455.31 685.47,-464.89"/>
<polygon fill="black" stroke="black" points="682.93,-467.3 692.41,-472.03 687.95,-462.42 682.93,-467.3"/>
<text text-anchor="middle" x="660.75" y="-442.45" font-family="Helvetica,sans-Serif" font-size="14.00">1</text>
</g>
<!-- F&#45;&gt;N -->
<g id="edge28" class="edge">
<title>F&#45;&gt;N</title>
<path fill="none" stroke="red" stroke-width="2" d="M1032.34,-290.19C1007.83,-267.08 957.08,-222.55 906,-198 805.06,-149.48 773.75,-136 661.75,-136 318.5,-136 318.5,-136 318.5,-136 273.2,-136 245.68,-189.2 232.48,-224.16"/>
<polygon fill="red" stroke="red" stroke-width="2" points="229.31,-222.63 229.27,-233.22 235.91,-224.97 229.31,-222.63"/>
<text text-anchor="middle" x="612" y="-138.45" font-family="Helvetica,sans-Serif" font-size="14.00" fill="red">7</text>
</g>
<!-- F&#45;&gt;O -->
<g id="edge27" class="edge">
<title>F&#45;&gt;O</title>
<path fill="none" stroke="black" d="M1047.19,-286.66C1045.77,-252.41 1038.53,-177.69 1003.5,-128 991.19,-110.54 942.9,-81.24 910.48,-62.79"/>
<polygon fill="black" stroke="black" points="912.32,-59.82 901.89,-57.96 908.89,-65.92 912.32,-59.82"/>
<text text-anchor="middle" x="951" y="-106.45" font-family="Helvetica,sans-Serif" font-size="14.00">1</text>
</g>
<!-- F&#45;&gt;A -->
<g id="edge22" class="edge">
<title>F&#45;&gt;A</title>
<path fill="none" stroke="black" d="M1059.9,-321.77C1076.48,-348.5 1109.02,-400.98 1128.71,-432.73"/>
<polygon fill="black" stroke="black" points="1125.57,-434.31 1133.81,-440.96 1131.52,-430.62 1125.57,-434.31"/>
<text text-anchor="middle" x="1097.25" y="-388.45" font-family="Helvetica,sans-Serif" font-size="14.00">3</text>
</g>
<!-- C&#45;&gt;K -->
<g id="edge32" class="edge">
<title>C&#45;&gt;K</title>
<path fill="none" stroke="black" d="M782.15,-538.13C718.59,-556.3 539.75,-601.83 390,-587 302.05,-578.29 273.97,-587.68 195,-548 168.56,-534.71 149.37,-506.11 137.94,-484.5"/>
<polygon fill="black" stroke="black" points="141.09,-482.98 133.49,-475.6 134.83,-486.11 141.09,-482.98"/>
<text text-anchor="middle" x="465.75" y="-591.45" font-family="Helvetica,sans-Serif" font-size="14.00">5</text>
</g>
<!-- C&#45;&gt;F -->
<g id="edge25" class="edge">
<title>C&#45;&gt;F</title>
<path fill="none" stroke="black" d="M831.57,-523.05C867.09,-510.08 934.78,-481.37 978,-438 1007.87,-408.02 1027.82,-362.54 1038.41,-333.3"/>
<polygon fill="black" stroke="black" points="1041.66,-334.61 1041.63,-324.02 1035.04,-332.31 1041.66,-334.61"/>
<text text-anchor="middle" x="951" y="-481.45" font-family="Helvetica,sans-Serif" font-size="14.00">3</text>
</g>
</g>
</svg>
