<?xml version="1.0" encoding="UTF-8" standalone="no"?>
<!DOCTYPE svg PUBLIC "-//W3C//DTD SVG 1.1//EN"
 "http://www.w3.org/Graphics/SVG/1.1/DTD/svg11.dtd">
<!-- Generated by graphviz version 12.0.0 (0)
 -->
<!-- Title: graphe071 Pages: 1 -->
<svg width="550pt" height="344pt"
 viewBox="0.00 0.00 549.50 343.75" xmlns="http://www.w3.org/2000/svg" xmlns:xlink="http://www.w3.org/1999/xlink">
<g id="graph0" class="graph" transform="scale(1 1) rotate(0) translate(4 339.75)">
<title>graphe071</title>
<polygon fill="white" stroke="none" points="-4,4 -4,-339.75 545.5,-339.75 545.5,4 -4,4"/>
<!-- D -->
<g id="node1" class="node">
<title>D</title>
<ellipse fill="none" stroke="black" cx="27" cy="-173" rx="27" ry="18"/>
<text text-anchor="middle" x="27" y="-167.57" font-family="Helvetica,sans-Serif" font-size="14.00">D</text>
</g>
<!-- G -->
<g id="node2" class="node">
<title>G</title>
<ellipse fill="none" stroke="black" cx="417" cy="-255" rx="27" ry="18"/>
<text text-anchor="middle" x="417" y="-249.57" font-family="Helvetica,sans-Serif" font-size="14.00">G</text>
</g>
<!-- D&#45;&gt;G -->
<g id="edge1" class="edge">
<title>D&#45;&gt;G</title>
<path fill="none" stroke="black" d="M30.97,-191.03C38.58,-230.28 62.63,-320 123.5,-320 123.5,-320 123.5,-320 320.5,-320 350.63,-320 378.28,-297.62 395.99,-279.13"/>
<polygon fill="black" stroke="black" points="398.46,-281.61 402.6,-271.85 393.29,-276.89 398.46,-281.61"/>
<text text-anchor="middle" x="222" y="-322.45" font-family="Helvetica,sans-Serif" font-size="14.00">6</text>
</g>
<!-- A -->
<g id="node6" class="node">
<title>A</title>
<ellipse fill="none" stroke="black" cx="124.5" cy="-196" rx="27" ry="18"/>
<text text-anchor="middle" x="124.5" y="-190.57" font-family="Helvetica,sans-Serif" font-size="14.00">A</text>
</g>
<!-- D&#45;&gt;A -->
<g id="edge9" class="edge">
<title>D&#45;&gt;A</title>
<path fill="none" stroke="black" d="M52.59,-178.92C63.32,-181.51 76.09,-184.58 87.83,-187.41"/>
<polygon fill="black" stroke="black" points="86.64,-190.72 97.19,-189.66 88.28,-183.92 86.64,-190.72"/>
<text text-anchor="middle" x="75.75" y="-187.45" font-family="Helvetica,sans-Serif" font-size="14.00">1</text>
</g>
<!-- G&#45;&gt;D -->
<g id="edge10" class="edge">
<title>G&#45;&gt;D</title>
<path fill="none" stroke="black" d="M390.99,-260.29C371.8,-263.89 344.6,-268 320.5,-268 123.5,-268 123.5,-268 123.5,-268 84.93,-268 56.42,-228.57 41.01,-200.51"/>
<polygon fill="black" stroke="black" points="44.18,-199.02 36.46,-191.77 37.97,-202.25 44.18,-199.02"/>
<text text-anchor="middle" x="222" y="-270.45" font-family="Helvetica,sans-Serif" font-size="14.00">3</text>
</g>
<!-- B -->
<g id="node3" class="node">
<title>B</title>
<ellipse fill="none" stroke="black" cx="417" cy="-109" rx="27" ry="18"/>
<text text-anchor="middle" x="417" y="-103.58" font-family="Helvetica,sans-Serif" font-size="14.00">B</text>
</g>
<!-- C -->
<g id="node4" class="node">
<title>C</title>
<ellipse fill="none" stroke="black" cx="514.5" cy="-71" rx="27" ry="18"/>
<text text-anchor="middle" x="514.5" y="-65.58" font-family="Helvetica,sans-Serif" font-size="14.00">C</text>
</g>
<!-- B&#45;&gt;C -->
<g id="edge2" class="edge">
<title>B&#45;&gt;C</title>
<path fill="none" stroke="black" d="M440.63,-99.99C452.44,-95.3 467.11,-89.46 480.19,-84.26"/>
<polygon fill="black" stroke="black" points="481.3,-87.58 489.29,-80.63 478.71,-81.08 481.3,-87.58"/>
<text text-anchor="middle" x="465.75" y="-94.45" font-family="Helvetica,sans-Serif" font-size="14.00">9</text>
</g>
<!-- E -->
<g id="node5" class="node">
<title>E</title>
<ellipse fill="none" stroke="black" cx="319.5" cy="-150" rx="27" ry="18"/>
<text text-anchor="middle" x="319.5" y="-144.57" font-family="Helvetica,sans-Serif" font-size="14.00">E</text>
</g>
<!-- B&#45;&gt;E -->
<g id="edge4" class="edge">
<title>B&#45;&gt;E</title>
<path fill="none" stroke="black" d="M393.64,-118.6C381.52,-123.8 366.32,-130.33 352.92,-136.08"/>
<polygon fill="black" stroke="black" points="351.85,-132.73 344.04,-139.89 354.61,-139.16 351.85,-132.73"/>
<text text-anchor="middle" x="368.25" y="-132.45" font-family="Helvetica,sans-Serif" font-size="14.00">5</text>
</g>
<!-- F -->
<g id="node7" class="node">
<title>F</title>
<ellipse fill="none" stroke="black" cx="222" cy="-104" rx="27" ry="18"/>
<text text-anchor="middle" x="222" y="-98.58" font-family="Helvetica,sans-Serif" font-size="14.00">F</text>
</g>
<!-- B&#45;&gt;F -->
<g id="edge11" class="edge">
<title>B&#45;&gt;F</title>
<path fill="none" stroke="black" d="M390.49,-104.24C384.45,-103.31 378.01,-102.48 372,-102 334.09,-99 290.59,-100.11 260.42,-101.59"/>
<polygon fill="black" stroke="black" points="260.47,-98.08 250.67,-102.11 260.84,-105.07 260.47,-98.08"/>
<text text-anchor="middle" x="319.5" y="-102.45" font-family="Helvetica,sans-Serif" font-size="14.00">8</text>
</g>
<!-- C&#45;&gt;D -->
<g id="edge3" class="edge">
<title>C&#45;&gt;D</title>
<path fill="none" stroke="black" d="M502,-54.53C485.86,-33.56 454.36,0 418,0 123.5,0 123.5,0 123.5,0 58.69,0 37.52,-94.22 30.88,-143.59"/>
<polygon fill="black" stroke="black" points="27.44,-142.96 29.7,-153.31 34.38,-143.81 27.44,-142.96"/>
<text text-anchor="middle" x="270.75" y="-2.45" font-family="Helvetica,sans-Serif" font-size="14.00">4</text>
</g>
<!-- C&#45;&gt;B -->
<g id="edge14" class="edge">
<title>C&#45;&gt;B</title>
<path fill="none" stroke="black" d="M487.95,-66.21C479.45,-65.63 470.1,-66.13 462,-69.25 453.22,-72.63 445.1,-78.66 438.29,-85.03"/>
<polygon fill="black" stroke="black" points="435.95,-82.4 431.47,-92 440.96,-87.3 435.95,-82.4"/>
<text text-anchor="middle" x="465.75" y="-72.45" font-family="Helvetica,sans-Serif" font-size="14.00">5</text>
</g>
<!-- C&#45;&gt;E -->
<g id="edge8" class="edge">
<title>C&#45;&gt;E</title>
<path fill="none" stroke="black" d="M500.96,-87.07C488.27,-102.15 467.25,-124.13 444,-136 417.45,-149.55 383.6,-152.56 358.05,-152.45"/>
<polygon fill="black" stroke="black" points="358.19,-148.95 348.12,-152.23 358.04,-155.95 358.19,-148.95"/>
<text text-anchor="middle" x="417" y="-152.45" font-family="Helvetica,sans-Serif" font-size="14.00">5</text>
</g>
<!-- C&#45;&gt;F -->
<g id="edge6" class="edge">
<title>C&#45;&gt;F</title>
<path fill="none" stroke="black" d="M488.41,-65.37C480.03,-64.09 470.63,-63.28 462,-64 389.34,-70.04 305.52,-86.23 258.95,-96.07"/>
<polygon fill="black" stroke="black" points="258.47,-92.59 249.43,-98.1 259.94,-99.44 258.47,-92.59"/>
<text text-anchor="middle" x="368.25" y="-79.45" font-family="Helvetica,sans-Serif" font-size="14.00">3</text>
</g>
<!-- E&#45;&gt;D -->
<g id="edge12" class="edge">
<title>E&#45;&gt;D</title>
<path fill="none" stroke="black" d="M292.33,-148.14C262.53,-146.39 212.41,-144.53 169.5,-148.25 133.36,-151.39 92.61,-158.95 64.15,-164.9"/>
<polygon fill="black" stroke="black" points="63.66,-161.42 54.61,-166.93 65.12,-168.27 63.66,-161.42"/>
<text text-anchor="middle" x="173.25" y="-150.45" font-family="Helvetica,sans-Serif" font-size="14.00">5</text>
</g>
<!-- E&#45;&gt;G -->
<g id="edge16" class="edge">
<title>E&#45;&gt;G</title>
<path fill="none" stroke="black" d="M334.18,-165.04C349.91,-182.33 375.92,-210.93 394.39,-231.24"/>
<polygon fill="black" stroke="black" points="391.7,-233.48 401.01,-238.52 396.87,-228.77 391.7,-233.48"/>
<text text-anchor="middle" x="368.25" y="-207.45" font-family="Helvetica,sans-Serif" font-size="14.00">5</text>
</g>
<!-- E&#45;&gt;B -->
<g id="edge13" class="edge">
<title>E&#45;&gt;B</title>
<path fill="none" stroke="black" d="M332.38,-133.73C340.29,-124.34 351.59,-113.4 364.5,-108.25 369.03,-106.44 373.97,-105.44 378.94,-104.98"/>
<polygon fill="black" stroke="black" points="378.95,-108.48 388.89,-104.8 378.83,-101.48 378.95,-108.48"/>
<text text-anchor="middle" x="368.25" y="-110.45" font-family="Helvetica,sans-Serif" font-size="14.00">9</text>
</g>
<!-- A&#45;&gt;G -->
<g id="edge15" class="edge">
<title>A&#45;&gt;G</title>
<path fill="none" stroke="black" d="M150.77,-201.13C202.41,-211.62 320.16,-235.54 379.86,-247.66"/>
<polygon fill="black" stroke="black" points="379.01,-251.06 389.51,-249.62 380.41,-244.2 379.01,-251.06"/>
<text text-anchor="middle" x="270.75" y="-228.45" font-family="Helvetica,sans-Serif" font-size="14.00">9</text>
</g>
<!-- A&#45;&gt;F -->
<g id="edge5" class="edge">
<title>A&#45;&gt;F</title>
<path fill="none" stroke="black" d="M148.01,-186.63C157.62,-181.94 168.53,-175.63 177,-168 188.66,-157.49 198.82,-143.31 206.42,-130.97"/>
<polygon fill="black" stroke="black" points="209.37,-132.85 211.42,-122.45 203.34,-129.3 209.37,-132.85"/>
<text text-anchor="middle" x="173.25" y="-175.45" font-family="Helvetica,sans-Serif" font-size="14.00">6</text>
</g>
<!-- F&#45;&gt;D -->
<g id="edge17" class="edge">
<title>F&#45;&gt;D</title>
<path fill="none" stroke="black" d="M194.71,-104.28C169.19,-105.29 129.69,-108.79 97.5,-120.25 80.05,-126.46 63.4,-138.78 50.78,-149.95"/>
<polygon fill="black" stroke="black" points="48.41,-147.38 43.46,-156.75 53.17,-152.51 48.41,-147.38"/>
<text text-anchor="middle" x="124.5" y="-122.45" font-family="Helvetica,sans-Serif" font-size="14.00">2</text>
</g>
<!-- F&#45;&gt;E -->
<g id="edge7" class="edge">
<title>F&#45;&gt;E</title>
<path fill="none" stroke="black" d="M247.66,-110.2C256.35,-112.8 266.06,-116.17 274.5,-120.25 280.31,-123.06 286.24,-126.55 291.77,-130.15"/>
<polygon fill="black" stroke="black" points="289.74,-133.01 299.97,-135.76 293.7,-127.23 289.74,-133.01"/>
<text text-anchor="middle" x="270.75" y="-122.45" font-family="Helvetica,sans-Serif" font-size="14.00">9</text>
</g>
</g>
</svg>
