<?xml version="1.0" encoding="UTF-8" standalone="no"?>
<!DOCTYPE svg PUBLIC "-//W3C//DTD SVG 1.1//EN"
 "http://www.w3.org/Graphics/SVG/1.1/DTD/svg11.dtd">
<!-- Generated by graphviz version 12.0.0 (0)
 -->
<!-- Title: graphe051 Pages: 1 -->
<svg width="355pt" height="259pt"
 viewBox="0.00 0.00 354.50 258.75" xmlns="http://www.w3.org/2000/svg" xmlns:xlink="http://www.w3.org/1999/xlink">
<g id="graph0" class="graph" transform="scale(1 1) rotate(0) translate(4 254.75)">
<title>graphe051</title>
<polygon fill="white" stroke="none" points="-4,4 -4,-254.75 350.5,-254.75 350.5,4 -4,4"/>
<!-- E -->
<g id="node1" class="node">
<title>E</title>
<ellipse fill="red" stroke="red" cx="27" cy="-130" rx="27" ry="18"/>
<text text-anchor="middle" x="27" y="-124.58" font-family="Helvetica,sans-Serif" font-weight="bold" font-size="14.00" fill="white">E</text>
</g>
<!-- D -->
<g id="node2" class="node">
<title>D</title>
<ellipse fill="red" stroke="red" cx="124.5" cy="-83" rx="27" ry="18"/>
<text text-anchor="middle" x="124.5" y="-77.58" font-family="Helvetica,sans-Serif" font-weight="bold" font-size="14.00" fill="white">D</text>
</g>
<!-- E&#45;&gt;D -->
<g id="edge1" class="edge">
<title>E&#45;&gt;D</title>
<path fill="none" stroke="black" d="M49.19,-119.57C61.72,-113.41 77.82,-105.48 91.82,-98.59"/>
<polygon fill="black" stroke="black" points="93.25,-101.79 100.68,-94.23 90.16,-95.51 93.25,-101.79"/>
<text text-anchor="middle" x="75.75" y="-109.45" font-family="Helvetica,sans-Serif" font-size="14.00">9</text>
</g>
<!-- B -->
<g id="node3" class="node">
<title>B</title>
<ellipse fill="red" stroke="red" cx="319.5" cy="-157" rx="27" ry="18"/>
<text text-anchor="middle" x="319.5" y="-151.57" font-family="Helvetica,sans-Serif" font-weight="bold" font-size="14.00" fill="white">B</text>
</g>
<!-- E&#45;&gt;B -->
<g id="edge11" class="edge">
<title>E&#45;&gt;B</title>
<path fill="none" stroke="red" stroke-width="2" d="M52.55,-136.73C58.85,-138.29 65.65,-139.84 72,-141 83.22,-143.05 86.13,-143 97.5,-144 161.03,-149.6 235.06,-153.4 279.28,-155.38"/>
<polygon fill="red" stroke="red" stroke-width="2" points="279.1,-158.88 289.24,-155.82 279.41,-151.89 279.1,-158.88"/>
<text text-anchor="middle" x="173.25" y="-151.45" font-family="Helvetica,sans-Serif" font-size="14.00" fill="red">2</text>
</g>
<!-- D&#45;&gt;E -->
<g id="edge10" class="edge">
<title>D&#45;&gt;E</title>
<path fill="none" stroke="black" d="M97.49,-80.44C89.05,-80.57 79.85,-81.76 72,-85.25 62.16,-89.63 53.37,-97.29 46.27,-105.06"/>
<polygon fill="black" stroke="black" points="43.74,-102.62 39.99,-112.53 49.1,-107.13 43.74,-102.62"/>
<text text-anchor="middle" x="75.75" y="-87.45" font-family="Helvetica,sans-Serif" font-size="14.00">7</text>
</g>
<!-- A -->
<g id="node4" class="node">
<title>A</title>
<ellipse fill="red" stroke="red" cx="222" cy="-70" rx="27" ry="18"/>
<text text-anchor="middle" x="222" y="-64.58" font-family="Helvetica,sans-Serif" font-weight="bold" font-size="14.00" fill="white">A</text>
</g>
<!-- D&#45;&gt;A -->
<g id="edge6" class="edge">
<title>D&#45;&gt;A</title>
<path fill="none" stroke="red" stroke-width="2" d="M151.34,-79.48C160.9,-78.18 171.95,-76.68 182.39,-75.26"/>
<polygon fill="red" stroke="red" stroke-width="2" points="182.7,-78.75 192.14,-73.93 181.76,-71.81 182.7,-78.75"/>
<text text-anchor="middle" x="173.25" y="-78.45" font-family="Helvetica,sans-Serif" font-size="14.00" fill="red">4</text>
</g>
<!-- C -->
<g id="node5" class="node">
<title>C</title>
<ellipse fill="red" stroke="red" cx="319.5" cy="-18" rx="27" ry="18"/>
<text text-anchor="middle" x="319.5" y="-12.57" font-family="Helvetica,sans-Serif" font-weight="bold" font-size="14.00" fill="white">C</text>
</g>
<!-- D&#45;&gt;C -->
<g id="edge12" class="edge">
<title>D&#45;&gt;C</title>
<path fill="none" stroke="black" d="M139.17,-67.44C152.05,-54.01 172.66,-35.52 195,-27.25 222.68,-17.01 256.18,-15.09 281.3,-15.51"/>
<polygon fill="black" stroke="black" points="280.94,-19 291.04,-15.82 281.16,-12.01 280.94,-19"/>
<text text-anchor="middle" x="222" y="-30.45" font-family="Helvetica,sans-Serif" font-size="14.00">1</text>
</g>
<!-- B&#45;&gt;E -->
<g id="edge2" class="edge">
<title>B&#45;&gt;E</title>
<path fill="none" stroke="black" d="M308.03,-173.7C300.24,-184.49 288.56,-197.65 274.5,-204 192.49,-241.07 149.54,-249.7 72,-204 55.16,-194.07 44.04,-174.97 37.19,-158.66"/>
<polygon fill="black" stroke="black" points="40.48,-157.47 33.65,-149.38 33.94,-159.97 40.48,-157.47"/>
<text text-anchor="middle" x="173.25" y="-237.45" font-family="Helvetica,sans-Serif" font-size="14.00">8</text>
</g>
<!-- B&#45;&gt;D -->
<g id="edge7" class="edge">
<title>B&#45;&gt;D</title>
<path fill="none" stroke="red" stroke-width="2" d="M295.63,-148.23C262.2,-135.42 199.72,-111.46 160.49,-96.42"/>
<polygon fill="red" stroke="red" stroke-width="2" points="161.81,-93.18 151.22,-92.86 159.31,-99.71 161.81,-93.18"/>
<text text-anchor="middle" x="222" y="-131.45" font-family="Helvetica,sans-Serif" font-size="14.00" fill="red">2</text>
</g>
<!-- A&#45;&gt;E -->
<g id="edge5" class="edge">
<title>A&#45;&gt;E</title>
<path fill="none" stroke="black" d="M201.36,-81.78C193.78,-86.28 185.02,-91.43 177,-96 165.77,-102.4 163.57,-105.36 151.5,-110 120.81,-121.8 112.03,-122.25 79.5,-127 75.04,-127.65 70.35,-128.16 65.68,-128.56"/>
<polygon fill="black" stroke="black" points="65.53,-125.06 55.8,-129.25 66.02,-132.05 65.53,-125.06"/>
<text text-anchor="middle" x="124.5" y="-126.45" font-family="Helvetica,sans-Serif" font-size="14.00">7</text>
</g>
<!-- A&#45;&gt;D -->
<g id="edge3" class="edge">
<title>A&#45;&gt;D</title>
<path fill="none" stroke="black" d="M202,-57.41C192.32,-52.53 180.32,-48.84 169.5,-52.25 162.89,-54.33 156.42,-57.79 150.55,-61.66"/>
<polygon fill="black" stroke="black" points="148.57,-58.77 142.56,-67.49 152.7,-64.43 148.57,-58.77"/>
<text text-anchor="middle" x="173.25" y="-54.45" font-family="Helvetica,sans-Serif" font-size="14.00">4</text>
</g>
<!-- A&#45;&gt;B -->
<g id="edge8" class="edge">
<title>A&#45;&gt;B</title>
<path fill="none" stroke="black" d="M246.55,-78.05C255.89,-81.99 266.33,-87.38 274.5,-94.25 286.35,-104.22 296.52,-118.1 304.09,-130.27"/>
<polygon fill="black" stroke="black" points="300.95,-131.83 309.04,-138.66 306.97,-128.27 300.95,-131.83"/>
<text text-anchor="middle" x="270.75" y="-96.45" font-family="Helvetica,sans-Serif" font-size="14.00">6</text>
</g>
<!-- A&#45;&gt;C -->
<g id="edge9" class="edge">
<title>A&#45;&gt;C</title>
<path fill="none" stroke="black" d="M243.72,-58.72C256.61,-51.7 273.42,-42.55 287.84,-34.7"/>
<polygon fill="black" stroke="black" points="289.38,-37.84 296.49,-29.98 286.03,-31.69 289.38,-37.84"/>
<text text-anchor="middle" x="270.75" y="-47.45" font-family="Helvetica,sans-Serif" font-size="14.00">8</text>
</g>
<!-- C&#45;&gt;E -->
<g id="edge4" class="edge">
<title>C&#45;&gt;E</title>
<path fill="none" stroke="red" stroke-width="2" d="M293.17,-12.94C262.86,-7.99 210.99,-3.06 169.5,-17.25 121.19,-33.77 107.93,-41.72 72,-78 63.95,-86.12 55.71,-95.53 48.56,-104.09"/>
<polygon fill="red" stroke="red" stroke-width="2" points="46.02,-101.67 42.4,-111.62 51.44,-106.1 46.02,-101.67"/>
<text text-anchor="middle" x="173.25" y="-20.45" font-family="Helvetica,sans-Serif" font-size="14.00" fill="red">5</text>
</g>
</g>
</svg>
