<?xml version="1.0" encoding="UTF-8" standalone="no"?>
<!DOCTYPE svg PUBLIC "-//W3C//DTD SVG 1.1//EN"
 "http://www.w3.org/Graphics/SVG/1.1/DTD/svg11.dtd">
<!-- Generated by graphviz version 12.0.0 (0)
 -->
<!-- Title: graphe101 Pages: 1 -->
<svg width="842pt" height="508pt"
 viewBox="0.00 0.00 842.00 507.75" xmlns="http://www.w3.org/2000/svg" xmlns:xlink="http://www.w3.org/1999/xlink">
<g id="graph0" class="graph" transform="scale(1 1) rotate(0) translate(4 503.75)">
<title>graphe101</title>
<polygon fill="white" stroke="none" points="-4,4 -4,-503.75 838,-503.75 838,4 -4,4"/>
<!-- G -->
<g id="node1" class="node">
<title>G</title>
<ellipse fill="none" stroke="black" cx="27" cy="-304" rx="27" ry="18"/>
<text text-anchor="middle" x="27" y="-298.57" font-family="Helvetica,sans-Serif" font-size="14.00">G</text>
</g>
<!-- B -->
<g id="node2" class="node">
<title>B</title>
<ellipse fill="none" stroke="black" cx="124.5" cy="-220" rx="27" ry="18"/>
<text text-anchor="middle" x="124.5" y="-214.57" font-family="Helvetica,sans-Serif" font-size="14.00">B</text>
</g>
<!-- G&#45;&gt;B -->
<g id="edge1" class="edge">
<title>G&#45;&gt;B</title>
<path fill="none" stroke="black" d="M44.2,-289.75C59.15,-276.6 81.58,-256.87 98.77,-241.75"/>
<polygon fill="black" stroke="black" points="100.89,-244.55 106.08,-235.32 96.26,-239.3 100.89,-244.55"/>
<text text-anchor="middle" x="75.75" y="-266.45" font-family="Helvetica,sans-Serif" font-size="14.00">5</text>
</g>
<!-- I -->
<g id="node3" class="node">
<title>I</title>
<ellipse fill="none" stroke="black" cx="222" cy="-32" rx="27" ry="18"/>
<text text-anchor="middle" x="222" y="-26.57" font-family="Helvetica,sans-Serif" font-size="14.00">I</text>
</g>
<!-- G&#45;&gt;I -->
<g id="edge15" class="edge">
<title>G&#45;&gt;I</title>
<path fill="none" stroke="black" d="M29.44,-285.69C33.63,-236.08 47.15,-100.38 72,-64 95.87,-29.06 148.06,-25.29 183.88,-27.38"/>
<polygon fill="black" stroke="black" points="183.58,-30.86 193.82,-28.15 184.13,-23.88 183.58,-30.86"/>
<text text-anchor="middle" x="124.5" y="-43.45" font-family="Helvetica,sans-Serif" font-size="14.00">8</text>
</g>
<!-- C -->
<g id="node5" class="node">
<title>C</title>
<ellipse fill="none" stroke="black" cx="807" cy="-326" rx="27" ry="18"/>
<text text-anchor="middle" x="807" y="-320.57" font-family="Helvetica,sans-Serif" font-size="14.00">C</text>
</g>
<!-- G&#45;&gt;C -->
<g id="edge12" class="edge">
<title>G&#45;&gt;C</title>
<path fill="none" stroke="black" d="M32.4,-322.07C42.19,-357.35 69.3,-432 123.5,-432 123.5,-432 123.5,-432 710.5,-432 752.6,-432 780.89,-385.28 795.16,-353.87"/>
<polygon fill="black" stroke="black" points="798.28,-355.46 799.02,-344.89 791.85,-352.7 798.28,-355.46"/>
<text text-anchor="middle" x="417" y="-434.45" font-family="Helvetica,sans-Serif" font-size="14.00">8</text>
</g>
<!-- D -->
<g id="node6" class="node">
<title>D</title>
<ellipse fill="none" stroke="black" cx="709.5" cy="-204" rx="27" ry="18"/>
<text text-anchor="middle" x="709.5" y="-198.57" font-family="Helvetica,sans-Serif" font-size="14.00">D</text>
</g>
<!-- G&#45;&gt;D -->
<g id="edge9" class="edge">
<title>G&#45;&gt;D</title>
<path fill="none" stroke="black" d="M33.35,-286.25C47.39,-243.35 89.78,-134.6 169.5,-94 228.52,-63.95 252.27,-96 318.5,-96 318.5,-96 318.5,-96 613,-96 655.54,-96 683.69,-143.6 697.8,-175.6"/>
<polygon fill="black" stroke="black" points="694.55,-176.89 701.63,-184.77 701.01,-174.19 694.55,-176.89"/>
<text text-anchor="middle" x="368.25" y="-98.45" font-family="Helvetica,sans-Serif" font-size="14.00">1</text>
</g>
<!-- B&#45;&gt;I -->
<g id="edge2" class="edge">
<title>B&#45;&gt;I</title>
<path fill="none" stroke="black" d="M131.56,-202.39C139.29,-180.69 153.57,-142.91 169.5,-112.25 179.33,-93.33 192.3,-73.14 202.77,-57.74"/>
<polygon fill="black" stroke="black" points="205.57,-59.84 208.37,-49.62 199.81,-55.87 205.57,-59.84"/>
<text text-anchor="middle" x="173.25" y="-114.45" font-family="Helvetica,sans-Serif" font-size="14.00">5</text>
</g>
<!-- H -->
<g id="node4" class="node">
<title>H</title>
<ellipse fill="none" stroke="black" cx="417" cy="-258" rx="27" ry="18"/>
<text text-anchor="middle" x="417" y="-252.57" font-family="Helvetica,sans-Serif" font-size="14.00">H</text>
</g>
<!-- B&#45;&gt;H -->
<g id="edge21" class="edge">
<title>B&#45;&gt;H</title>
<path fill="none" stroke="black" d="M148.55,-228.34C155.23,-230.48 162.59,-232.58 169.5,-234 242.65,-249.02 330,-254.71 378.62,-256.81"/>
<polygon fill="black" stroke="black" points="378.18,-260.3 388.31,-257.2 378.46,-253.3 378.18,-260.3"/>
<text text-anchor="middle" x="270.75" y="-251.45" font-family="Helvetica,sans-Serif" font-size="14.00">5</text>
</g>
<!-- B&#45;&gt;C -->
<g id="edge23" class="edge">
<title>B&#45;&gt;C</title>
<path fill="none" stroke="black" d="M129.9,-238.07C139.69,-273.35 166.8,-348 221,-348 221,-348 221,-348 710.5,-348 731.25,-348 753.91,-343 771.95,-337.77"/>
<polygon fill="black" stroke="black" points="772.82,-341.17 781.35,-334.89 770.76,-334.48 772.82,-341.17"/>
<text text-anchor="middle" x="465.75" y="-350.45" font-family="Helvetica,sans-Serif" font-size="14.00">8</text>
</g>
<!-- J -->
<g id="node7" class="node">
<title>J</title>
<ellipse fill="none" stroke="black" cx="319.5" cy="-142" rx="27" ry="18"/>
<text text-anchor="middle" x="319.5" y="-136.57" font-family="Helvetica,sans-Serif" font-size="14.00">J</text>
</g>
<!-- B&#45;&gt;J -->
<g id="edge19" class="edge">
<title>B&#45;&gt;J</title>
<path fill="none" stroke="black" d="M136.24,-203.37C148.26,-186.37 169.45,-160.86 195,-149.25 222.01,-136.98 255.83,-135.84 281.24,-137.39"/>
<polygon fill="black" stroke="black" points="280.87,-140.87 291.11,-138.18 281.42,-133.89 280.87,-140.87"/>
<text text-anchor="middle" x="222" y="-151.45" font-family="Helvetica,sans-Serif" font-size="14.00">1</text>
</g>
<!-- A -->
<g id="node8" class="node">
<title>A</title>
<ellipse fill="none" stroke="black" cx="514.5" cy="-256" rx="27" ry="18"/>
<text text-anchor="middle" x="514.5" y="-250.57" font-family="Helvetica,sans-Serif" font-size="14.00">A</text>
</g>
<!-- B&#45;&gt;A -->
<g id="edge17" class="edge">
<title>B&#45;&gt;A</title>
<path fill="none" stroke="black" d="M151.82,-218.18C206.72,-214.98 337.23,-210.48 444,-231 456.41,-233.38 469.56,-237.64 481.04,-241.96"/>
<polygon fill="black" stroke="black" points="479.47,-245.11 490.05,-245.52 482.04,-238.6 479.47,-245.11"/>
<text text-anchor="middle" x="319.5" y="-220.45" font-family="Helvetica,sans-Serif" font-size="14.00">5</text>
</g>
<!-- I&#45;&gt;C -->
<g id="edge11" class="edge">
<title>I&#45;&gt;C</title>
<path fill="none" stroke="black" d="M249.19,-29.35C320.03,-23.34 519.8,-14.03 664.5,-82 718.15,-107.2 731.02,-122.46 762,-173 785.82,-211.86 797.21,-264.16 802.3,-296.44"/>
<polygon fill="black" stroke="black" points="798.83,-296.88 803.74,-306.27 805.76,-295.87 798.83,-296.88"/>
<text text-anchor="middle" x="514.5" y="-44.45" font-family="Helvetica,sans-Serif" font-size="14.00">6</text>
</g>
<!-- I&#45;&gt;J -->
<g id="edge6" class="edge">
<title>I&#45;&gt;J</title>
<path fill="none" stroke="black" d="M236.28,-47.3C252.15,-65.58 278.91,-96.4 297.58,-117.9"/>
<polygon fill="black" stroke="black" points="294.83,-120.08 304.03,-125.34 300.12,-115.49 294.83,-120.08"/>
<text text-anchor="middle" x="270.75" y="-92.45" font-family="Helvetica,sans-Serif" font-size="14.00">6</text>
</g>
<!-- H&#45;&gt;G -->
<g id="edge3" class="edge">
<title>H&#45;&gt;G</title>
<path fill="none" stroke="black" d="M399.22,-271.8C381.01,-285.35 350.5,-304 320.5,-304 123.5,-304 123.5,-304 123.5,-304 104.51,-304 83.39,-304 65.85,-304"/>
<polygon fill="black" stroke="black" points="65.86,-300.5 55.86,-304 65.86,-307.5 65.86,-300.5"/>
<text text-anchor="middle" x="222" y="-306.45" font-family="Helvetica,sans-Serif" font-size="14.00">2</text>
</g>
<!-- H&#45;&gt;C -->
<g id="edge4" class="edge">
<title>H&#45;&gt;C</title>
<path fill="none" stroke="black" d="M434.78,-271.8C452.99,-285.35 483.5,-304 513.5,-304 513.5,-304 513.5,-304 710.5,-304 731.25,-304 753.91,-309 771.95,-314.23"/>
<polygon fill="black" stroke="black" points="770.76,-317.52 781.35,-317.11 772.82,-310.83 770.76,-317.52"/>
<text text-anchor="middle" x="612" y="-306.45" font-family="Helvetica,sans-Serif" font-size="14.00">3</text>
</g>
<!-- H&#45;&gt;A -->
<g id="edge8" class="edge">
<title>H&#45;&gt;A</title>
<path fill="none" stroke="black" d="M444.35,-257.45C454.06,-257.24 465.25,-257.01 475.77,-256.79"/>
<polygon fill="black" stroke="black" points="475.8,-260.29 485.72,-256.58 475.65,-253.29 475.8,-260.29"/>
<text text-anchor="middle" x="465.75" y="-259.45" font-family="Helvetica,sans-Serif" font-size="14.00">2</text>
</g>
<!-- C&#45;&gt;G -->
<g id="edge10" class="edge">
<title>C&#45;&gt;G</title>
<path fill="none" stroke="black" d="M803.69,-344.12C797.27,-385.63 775.24,-484 710.5,-484 123.5,-484 123.5,-484 123.5,-484 56.2,-484 36.18,-384.59 30.34,-333.52"/>
<polygon fill="black" stroke="black" points="33.84,-333.35 29.35,-323.76 26.88,-334.06 33.84,-333.35"/>
<text text-anchor="middle" x="417" y="-486.45" font-family="Helvetica,sans-Serif" font-size="14.00">1</text>
</g>
<!-- D&#45;&gt;H -->
<g id="edge5" class="edge">
<title>D&#45;&gt;H</title>
<path fill="none" stroke="black" d="M682.21,-204.58C640.35,-206.04 556.27,-211.15 487.5,-229 474.61,-232.34 460.98,-237.62 449.24,-242.75"/>
<polygon fill="black" stroke="black" points="448.1,-239.43 440.44,-246.75 450.99,-245.8 448.1,-239.43"/>
<text text-anchor="middle" x="563.25" y="-216.45" font-family="Helvetica,sans-Serif" font-size="14.00">3</text>
</g>
<!-- D&#45;&gt;C -->
<g id="edge25" class="edge">
<title>D&#45;&gt;C</title>
<path fill="none" stroke="black" d="M722.98,-219.95C739.14,-240.59 767.47,-276.78 786.48,-301.07"/>
<polygon fill="black" stroke="black" points="783.66,-303.14 792.58,-308.85 789.17,-298.82 783.66,-303.14"/>
<text text-anchor="middle" x="758.25" y="-270.45" font-family="Helvetica,sans-Serif" font-size="14.00">6</text>
</g>
<!-- E -->
<g id="node9" class="node">
<title>E</title>
<ellipse fill="none" stroke="black" cx="807" cy="-134" rx="27" ry="18"/>
<text text-anchor="middle" x="807" y="-128.57" font-family="Helvetica,sans-Serif" font-size="14.00">E</text>
</g>
<!-- D&#45;&gt;E -->
<g id="edge14" class="edge">
<title>D&#45;&gt;E</title>
<path fill="none" stroke="black" d="M728.46,-190.83C742.74,-180.37 762.92,-165.58 779.12,-153.7"/>
<polygon fill="black" stroke="black" points="780.9,-156.74 786.9,-148 776.76,-151.09 780.9,-156.74"/>
<text text-anchor="middle" x="758.25" y="-173.45" font-family="Helvetica,sans-Serif" font-size="14.00">2</text>
</g>
<!-- J&#45;&gt;B -->
<g id="edge18" class="edge">
<title>J&#45;&gt;B</title>
<path fill="none" stroke="black" d="M295.65,-150.68C270.8,-160.17 229.94,-175.95 195,-190.25 182.94,-195.19 169.78,-200.77 158.19,-205.75"/>
<polygon fill="black" stroke="black" points="156.83,-202.53 149.04,-209.71 159.6,-208.95 156.83,-202.53"/>
<text text-anchor="middle" x="222" y="-192.45" font-family="Helvetica,sans-Serif" font-size="14.00">5</text>
</g>
<!-- J&#45;&gt;H -->
<g id="edge7" class="edge">
<title>J&#45;&gt;H</title>
<path fill="none" stroke="black" d="M333.38,-157.64C349.4,-177.1 376.93,-210.55 395.78,-233.44"/>
<polygon fill="black" stroke="black" points="393,-235.57 402.06,-241.06 398.4,-231.12 393,-235.57"/>
<text text-anchor="middle" x="368.25" y="-205.45" font-family="Helvetica,sans-Serif" font-size="14.00">6</text>
</g>
<!-- J&#45;&gt;E -->
<g id="edge13" class="edge">
<title>J&#45;&gt;E</title>
<path fill="none" stroke="black" d="M346.39,-138.65C365.57,-136.46 392.37,-134 416,-134 416,-134 416,-134 710.5,-134 729.49,-134 750.61,-134 768.15,-134"/>
<polygon fill="black" stroke="black" points="768.14,-137.5 778.14,-134 768.14,-130.5 768.14,-137.5"/>
<text text-anchor="middle" x="563.25" y="-136.45" font-family="Helvetica,sans-Serif" font-size="14.00">5</text>
</g>
<!-- A&#45;&gt;G -->
<g id="edge16" class="edge">
<title>A&#45;&gt;G</title>
<path fill="none" stroke="black" d="M511.13,-274.09C506.98,-298.63 496.14,-342.36 469.5,-368 452.03,-384.82 442.25,-386 418,-386 123.5,-386 123.5,-386 123.5,-386 88.74,-386 60.3,-354.34 43.75,-330.36"/>
<polygon fill="black" stroke="black" points="46.85,-328.7 38.43,-322.26 40.99,-332.54 46.85,-328.7"/>
<text text-anchor="middle" x="270.75" y="-388.45" font-family="Helvetica,sans-Serif" font-size="14.00">5</text>
</g>
<!-- F -->
<g id="node10" class="node">
<title>F</title>
<ellipse fill="none" stroke="black" cx="612" cy="-250" rx="27" ry="18"/>
<text text-anchor="middle" x="612" y="-244.57" font-family="Helvetica,sans-Serif" font-size="14.00">F</text>
</g>
<!-- A&#45;&gt;F -->
<g id="edge24" class="edge">
<title>A&#45;&gt;F</title>
<path fill="none" stroke="black" d="M541.85,-254.34C551.56,-253.73 562.75,-253.03 573.27,-252.37"/>
<polygon fill="black" stroke="black" points="573.47,-255.87 583.23,-251.74 573.03,-248.88 573.47,-255.87"/>
<text text-anchor="middle" x="563.25" y="-255.45" font-family="Helvetica,sans-Serif" font-size="14.00">7</text>
</g>
<!-- E&#45;&gt;I -->
<g id="edge22" class="edge">
<title>E&#45;&gt;I</title>
<path fill="none" stroke="black" d="M802.09,-115.93C792.99,-79.35 766.78,0 710.5,0 318.5,0 318.5,0 318.5,0 296.09,0 272.19,-8.02 253.91,-16.02"/>
<polygon fill="black" stroke="black" points="252.55,-12.79 244.95,-20.17 255.5,-19.15 252.55,-12.79"/>
<text text-anchor="middle" x="514.5" y="-2.45" font-family="Helvetica,sans-Serif" font-size="14.00">3</text>
</g>
<!-- F&#45;&gt;D -->
<g id="edge20" class="edge">
<title>F&#45;&gt;D</title>
<path fill="none" stroke="black" d="M634.67,-239.56C647.12,-233.56 662.99,-225.92 676.83,-219.26"/>
<polygon fill="black" stroke="black" points="678.06,-222.55 685.55,-215.05 675.02,-216.24 678.06,-222.55"/>
<text text-anchor="middle" x="660.75" y="-230.45" font-family="Helvetica,sans-Serif" font-size="14.00">8</text>
</g>
</g>
</svg>
