<?xml version="1.0" encoding="UTF-8" standalone="no"?>
<!DOCTYPE svg PUBLIC "-//W3C//DTD SVG 1.1//EN"
 "http://www.w3.org/Graphics/SVG/1.1/DTD/svg11.dtd">
<!-- Generated by graphviz version 12.0.0 (0)
 -->
<!-- Title: graphe042 Pages: 1 -->
<svg width="355pt" height="197pt"
 viewBox="0.00 0.00 354.50 196.89" xmlns="http://www.w3.org/2000/svg" xmlns:xlink="http://www.w3.org/1999/xlink">
<g id="graph0" class="graph" transform="scale(1 1) rotate(0) translate(4 192.89)">
<title>graphe042</title>
<polygon fill="white" stroke="none" points="-4,4 -4,-192.89 350.5,-192.89 350.5,4 -4,4"/>
<!-- B -->
<g id="node1" class="node">
<title>B</title>
<ellipse fill="none" stroke="black" cx="27" cy="-94.14" rx="27" ry="18"/>
<text text-anchor="middle" x="27" y="-88.72" font-family="Helvetica,sans-Serif" font-size="14.00">B</text>
</g>
<!-- A -->
<g id="node2" class="node">
<title>A</title>
<ellipse fill="none" stroke="black" cx="124.5" cy="-90.14" rx="27" ry="18"/>
<text text-anchor="middle" x="124.5" y="-84.72" font-family="Helvetica,sans-Serif" font-size="14.00">A</text>
</g>
<!-- B&#45;&gt;A -->
<g id="edge1" class="edge">
<title>B&#45;&gt;A</title>
<path fill="none" stroke="black" d="M54.2,-93.16C62.31,-92.84 71.28,-92.49 79.5,-92.14 81.68,-92.05 83.92,-91.95 86.17,-91.86"/>
<polygon fill="black" stroke="black" points="86.1,-95.36 95.93,-91.42 85.79,-88.37 86.1,-95.36"/>
<text text-anchor="middle" x="75.75" y="-94.59" font-family="Helvetica,sans-Serif" font-size="14.00">8</text>
</g>
<!-- D -->
<g id="node3" class="node">
<title>D</title>
<ellipse fill="none" stroke="black" cx="222" cy="-117.14" rx="27" ry="18"/>
<text text-anchor="middle" x="222" y="-111.72" font-family="Helvetica,sans-Serif" font-size="14.00">D</text>
</g>
<!-- B&#45;&gt;D -->
<g id="edge2" class="edge">
<title>B&#45;&gt;D</title>
<path fill="none" stroke="black" d="M34.82,-111.68C41.81,-127.31 54.18,-149.59 72,-162.14 81.52,-168.85 85.93,-166.8 97.5,-168.14 132.7,-172.23 146.14,-179.56 177,-162.14 186.16,-156.97 194.66,-149.32 201.7,-141.79"/>
<polygon fill="black" stroke="black" points="204.3,-144.13 208.24,-134.3 199.02,-139.53 204.3,-144.13"/>
<text text-anchor="middle" x="124.5" y="-175.59" font-family="Helvetica,sans-Serif" font-size="14.00">8</text>
</g>
<!-- C -->
<g id="node4" class="node">
<title>C</title>
<ellipse fill="none" stroke="black" cx="319.5" cy="-39.14" rx="27" ry="18"/>
<text text-anchor="middle" x="319.5" y="-33.72" font-family="Helvetica,sans-Serif" font-size="14.00">C</text>
</g>
<!-- B&#45;&gt;C -->
<g id="edge7" class="edge">
<title>B&#45;&gt;C</title>
<path fill="none" stroke="black" d="M46.01,-80.86C53.67,-75.82 62.92,-70.49 72,-67.14 142.57,-41.14 231.54,-37.58 280.99,-37.95"/>
<polygon fill="black" stroke="black" points="280.82,-41.45 290.87,-38.09 280.92,-34.45 280.82,-41.45"/>
<text text-anchor="middle" x="173.25" y="-46.59" font-family="Helvetica,sans-Serif" font-size="14.00">7</text>
</g>
<!-- A&#45;&gt;B -->
<g id="edge3" class="edge">
<title>A&#45;&gt;B</title>
<path fill="none" stroke="black" d="M104.21,-78.01C94.66,-73.43 82.87,-69.85 72,-72.39 67.24,-73.5 62.4,-75.21 57.76,-77.19"/>
<polygon fill="black" stroke="black" points="56.29,-74.01 48.79,-81.49 59.32,-80.32 56.29,-74.01"/>
<text text-anchor="middle" x="75.75" y="-74.59" font-family="Helvetica,sans-Serif" font-size="14.00">2</text>
</g>
<!-- A&#45;&gt;D -->
<g id="edge6" class="edge">
<title>A&#45;&gt;D</title>
<path fill="none" stroke="black" d="M149.6,-96.95C160.49,-100.03 173.57,-103.73 185.54,-107.12"/>
<polygon fill="black" stroke="black" points="184.55,-110.47 195.12,-109.82 186.45,-103.74 184.55,-110.47"/>
<text text-anchor="middle" x="173.25" y="-106.59" font-family="Helvetica,sans-Serif" font-size="14.00">7</text>
</g>
<!-- D&#45;&gt;B -->
<g id="edge4" class="edge">
<title>D&#45;&gt;B</title>
<path fill="none" stroke="black" d="M195.49,-121.9C189.45,-122.83 183.01,-123.67 177,-124.14 130.18,-127.84 117,-125.62 72,-112.14 68.25,-111.02 64.38,-109.69 60.56,-108.28"/>
<polygon fill="black" stroke="black" points="62.08,-105.12 51.49,-104.71 59.51,-111.63 62.08,-105.12"/>
<text text-anchor="middle" x="124.5" y="-127.59" font-family="Helvetica,sans-Serif" font-size="14.00">5</text>
</g>
<!-- D&#45;&gt;A -->
<g id="edge8" class="edge">
<title>D&#45;&gt;A</title>
<path fill="none" stroke="black" d="M207.06,-102.11C199.08,-94.63 188.4,-86.35 177,-82.39 171.73,-80.56 166,-80.06 160.35,-80.36"/>
<polygon fill="black" stroke="black" points="159.94,-76.89 150.51,-81.72 160.9,-83.82 159.94,-76.89"/>
<text text-anchor="middle" x="173.25" y="-84.59" font-family="Helvetica,sans-Serif" font-size="14.00">4</text>
</g>
<!-- D&#45;&gt;C -->
<g id="edge9" class="edge">
<title>D&#45;&gt;C</title>
<path fill="none" stroke="black" d="M239.63,-103.55C254.33,-91.55 276,-73.85 292.91,-60.04"/>
<polygon fill="black" stroke="black" points="295.03,-62.83 300.56,-53.79 290.6,-57.41 295.03,-62.83"/>
<text text-anchor="middle" x="270.75" y="-82.59" font-family="Helvetica,sans-Serif" font-size="14.00">1</text>
</g>
<!-- C&#45;&gt;B -->
<g id="edge5" class="edge">
<title>C&#45;&gt;B</title>
<path fill="none" stroke="black" d="M297.11,-28.52C268.47,-15.51 215.87,4.17 169.5,-1.39 125.22,-6.71 108.27,0.81 72,-25.14 57.64,-35.42 46.85,-51.98 39.55,-66.31"/>
<polygon fill="black" stroke="black" points="36.4,-64.78 35.29,-75.32 42.73,-67.77 36.4,-64.78"/>
<text text-anchor="middle" x="173.25" y="-4.59" font-family="Helvetica,sans-Serif" font-size="14.00">4</text>
</g>
</g>
</svg>
