<?xml version="1.0" encoding="UTF-8" standalone="no"?>
<!DOCTYPE svg PUBLIC "-//W3C//DTD SVG 1.1//EN"
 "http://www.w3.org/Graphics/SVG/1.1/DTD/svg11.dtd">
<!-- Generated by graphviz version 12.0.0 (0)
 -->
<!-- Title: graphe043 Pages: 1 -->
<svg width="355pt" height="167pt"
 viewBox="0.00 0.00 354.50 166.89" xmlns="http://www.w3.org/2000/svg" xmlns:xlink="http://www.w3.org/1999/xlink">
<g id="graph0" class="graph" transform="scale(1 1) rotate(0) translate(4 162.89)">
<title>graphe043</title>
<polygon fill="white" stroke="none" points="-4,4 -4,-162.89 350.5,-162.89 350.5,4 -4,4"/>
<!-- D -->
<g id="node1" class="node">
<title>D</title>
<ellipse fill="red" stroke="red" cx="27" cy="-26.89" rx="27" ry="18"/>
<text text-anchor="middle" x="27" y="-21.47" font-family="Helvetica,sans-Serif" font-weight="bold" font-size="14.00" fill="white">D</text>
</g>
<!-- C -->
<g id="node2" class="node">
<title>C</title>
<ellipse fill="red" stroke="red" cx="124.5" cy="-140.89" rx="27" ry="18"/>
<text text-anchor="middle" x="124.5" y="-135.47" font-family="Helvetica,sans-Serif" font-weight="bold" font-size="14.00" fill="white">C</text>
</g>
<!-- D&#45;&gt;C -->
<g id="edge1" class="edge">
<title>D&#45;&gt;C</title>
<path fill="none" stroke="black" d="M37.67,-43.65C45.99,-57.46 58.71,-77.26 72,-92.89 79.95,-102.25 89.6,-111.66 98.38,-119.64"/>
<polygon fill="black" stroke="black" points="95.85,-122.07 105.65,-126.08 100.49,-116.83 95.85,-122.07"/>
<text text-anchor="middle" x="75.75" y="-102.34" font-family="Helvetica,sans-Serif" font-size="14.00">8</text>
</g>
<!-- B -->
<g id="node3" class="node">
<title>B</title>
<ellipse fill="none" stroke="black" cx="319.5" cy="-19.89" rx="27" ry="18"/>
<text text-anchor="middle" x="319.5" y="-14.47" font-family="Helvetica,sans-Serif" font-size="14.00">B</text>
</g>
<!-- D&#45;&gt;B -->
<g id="edge2" class="edge">
<title>D&#45;&gt;B</title>
<path fill="none" stroke="black" d="M54.05,-24.89C59.95,-24.5 66.19,-24.14 72,-23.89 145.92,-20.78 232.39,-20.04 280.77,-19.9"/>
<polygon fill="black" stroke="black" points="280.71,-23.4 290.71,-19.88 280.7,-16.4 280.71,-23.4"/>
<text text-anchor="middle" x="173.25" y="-23.34" font-family="Helvetica,sans-Serif" font-size="14.00">6</text>
</g>
<!-- A -->
<g id="node4" class="node">
<title>A</title>
<ellipse fill="red" stroke="red" cx="222" cy="-73.89" rx="27" ry="18"/>
<text text-anchor="middle" x="222" y="-68.47" font-family="Helvetica,sans-Serif" font-weight="bold" font-size="14.00" fill="white">A</text>
</g>
<!-- D&#45;&gt;A -->
<g id="edge9" class="edge">
<title>D&#45;&gt;A</title>
<path fill="none" stroke="black" d="M49.06,-37.76C62.56,-44.28 80.66,-52.19 97.5,-56.89 125.81,-64.79 158.83,-69.09 183.6,-71.39"/>
<polygon fill="black" stroke="black" points="183.27,-74.88 193.53,-72.24 183.87,-67.9 183.27,-74.88"/>
<text text-anchor="middle" x="124.5" y="-69.34" font-family="Helvetica,sans-Serif" font-size="14.00">8</text>
</g>
<!-- C&#45;&gt;B -->
<g id="edge8" class="edge">
<title>C&#45;&gt;B</title>
<path fill="none" stroke="black" d="M149.94,-147.67C158.61,-149.05 168.36,-149.42 177,-146.89 232.13,-130.78 277.69,-77.9 301.22,-45.68"/>
<polygon fill="black" stroke="black" points="303.99,-47.82 306.92,-37.64 298.28,-43.77 303.99,-47.82"/>
<text text-anchor="middle" x="222" y="-142.34" font-family="Helvetica,sans-Serif" font-size="14.00">9</text>
</g>
<!-- C&#45;&gt;A -->
<g id="edge7" class="edge">
<title>C&#45;&gt;A</title>
<path fill="none" stroke="red" stroke-width="2" d="M150.55,-135.51C159.38,-132.89 169.07,-129.14 177,-123.89 186.46,-117.64 195.14,-108.83 202.23,-100.35"/>
<polygon fill="red" stroke="red" stroke-width="2" points="204.78,-102.78 208.19,-92.74 199.27,-98.46 204.78,-102.78"/>
<text text-anchor="middle" x="173.25" y="-129.34" font-family="Helvetica,sans-Serif" font-size="14.00" fill="red">7</text>
</g>
<!-- B&#45;&gt;D -->
<g id="edge3" class="edge">
<title>B&#45;&gt;D</title>
<path fill="none" stroke="black" d="M293.78,-13.5C264.26,-6.62 213.38,2.82 169.5,-1.14 133.22,-4.42 92.33,-12.32 63.87,-18.52"/>
<polygon fill="black" stroke="black" points="63.34,-15.05 54.34,-20.64 64.86,-21.88 63.34,-15.05"/>
<text text-anchor="middle" x="173.25" y="-3.34" font-family="Helvetica,sans-Serif" font-size="14.00">6</text>
</g>
<!-- A&#45;&gt;D -->
<g id="edge6" class="edge">
<title>A&#45;&gt;D</title>
<path fill="none" stroke="red" stroke-width="2" d="M201,-62.33C187.47,-55.05 168.95,-46.11 151.5,-41.14 123.83,-33.26 91.49,-29.72 66.84,-28.14"/>
<polygon fill="red" stroke="red" stroke-width="2" points="67.22,-24.66 57.04,-27.61 66.84,-31.65 67.22,-24.66"/>
<text text-anchor="middle" x="124.5" y="-43.34" font-family="Helvetica,sans-Serif" font-size="14.00" fill="red">7</text>
</g>
<!-- A&#45;&gt;C -->
<g id="edge4" class="edge">
<title>A&#45;&gt;C</title>
<path fill="none" stroke="black" d="M201.76,-86.34C192.01,-92.74 180.04,-100.73 169.5,-108.14 163.81,-112.15 157.79,-116.53 152.09,-120.75"/>
<polygon fill="black" stroke="black" points="150.03,-117.92 144.11,-126.7 154.22,-123.53 150.03,-117.92"/>
<text text-anchor="middle" x="173.25" y="-110.34" font-family="Helvetica,sans-Serif" font-size="14.00">3</text>
</g>
<!-- A&#45;&gt;B -->
<g id="edge5" class="edge">
<title>A&#45;&gt;B</title>
<path fill="none" stroke="black" d="M243.25,-62.44C256.42,-54.99 273.82,-45.16 288.57,-36.82"/>
<polygon fill="black" stroke="black" points="289.98,-40.04 296.96,-32.07 286.53,-33.95 289.98,-40.04"/>
<text text-anchor="middle" x="270.75" y="-50.34" font-family="Helvetica,sans-Serif" font-size="14.00">2</text>
</g>
</g>
</svg>
