<?xml version="1.0" encoding="UTF-8" standalone="no"?>
<!DOCTYPE svg PUBLIC "-//W3C//DTD SVG 1.1//EN"
 "http://www.w3.org/Graphics/SVG/1.1/DTD/svg11.dtd">
<!-- Generated by graphviz version 12.0.0 (0)
 -->
<!-- Title: graphe031 Pages: 1 -->
<svg width="257pt" height="180pt"
 viewBox="0.00 0.00 257.00 179.75" xmlns="http://www.w3.org/2000/svg" xmlns:xlink="http://www.w3.org/1999/xlink">
<g id="graph0" class="graph" transform="scale(1 1) rotate(0) translate(4 175.75)">
<title>graphe031</title>
<polygon fill="white" stroke="none" points="-4,4 -4,-175.75 253,-175.75 253,4 -4,4"/>
<!-- B -->
<g id="node1" class="node">
<title>B</title>
<ellipse fill="none" stroke="black" cx="27" cy="-82" rx="27" ry="18"/>
<text text-anchor="middle" x="27" y="-76.58" font-family="Helvetica,sans-Serif" font-size="14.00">B</text>
</g>
<!-- C -->
<g id="node2" class="node">
<title>C</title>
<ellipse fill="red" stroke="red" cx="124.5" cy="-111" rx="27" ry="18"/>
<text text-anchor="middle" x="124.5" y="-105.58" font-family="Helvetica,sans-Serif" font-weight="bold" font-size="14.00" fill="white">C</text>
</g>
<!-- B&#45;&gt;C -->
<g id="edge1" class="edge">
<title>B&#45;&gt;C</title>
<path fill="none" stroke="black" d="M50.62,-91.44C57.43,-94.09 64.96,-96.83 72,-99 76.87,-100.5 82.05,-101.91 87.17,-103.21"/>
<polygon fill="black" stroke="black" points="86.15,-106.56 96.69,-105.49 87.78,-99.75 86.15,-106.56"/>
<text text-anchor="middle" x="75.75" y="-103.45" font-family="Helvetica,sans-Serif" font-size="14.00">3</text>
</g>
<!-- A -->
<g id="node3" class="node">
<title>A</title>
<ellipse fill="red" stroke="red" cx="222" cy="-140" rx="27" ry="18"/>
<text text-anchor="middle" x="222" y="-134.57" font-family="Helvetica,sans-Serif" font-weight="bold" font-size="14.00" fill="white">A</text>
</g>
<!-- B&#45;&gt;A -->
<g id="edge2" class="edge">
<title>B&#45;&gt;A</title>
<path fill="none" stroke="black" d="M49.37,-71.52C79.87,-58.2 136.63,-39.57 177,-63 194.92,-73.4 206.15,-94.13 212.78,-111.47"/>
<polygon fill="black" stroke="black" points="209.43,-112.48 216,-120.79 216.05,-110.2 209.43,-112.48"/>
<text text-anchor="middle" x="124.5" y="-57.45" font-family="Helvetica,sans-Serif" font-size="14.00">7</text>
</g>
<!-- C&#45;&gt;B -->
<g id="edge7" class="edge">
<title>C&#45;&gt;B</title>
<path fill="none" stroke="black" d="M108.15,-96.25C100.25,-89.68 90.08,-82.67 79.5,-79.25 74.85,-77.75 69.84,-77.01 64.84,-76.78"/>
<polygon fill="black" stroke="black" points="64.79,-73.28 54.87,-77.01 64.95,-80.28 64.79,-73.28"/>
<text text-anchor="middle" x="75.75" y="-81.45" font-family="Helvetica,sans-Serif" font-size="14.00">4</text>
</g>
<!-- C&#45;&gt;A -->
<g id="edge3" class="edge">
<title>C&#45;&gt;A</title>
<path fill="none" stroke="black" d="M150.87,-115.66C159.26,-117.43 168.6,-119.66 177,-122.25 180.73,-123.4 184.59,-124.74 188.41,-126.15"/>
<polygon fill="black" stroke="black" points="186.88,-129.31 197.47,-129.68 189.42,-122.79 186.88,-129.31"/>
<text text-anchor="middle" x="173.25" y="-124.45" font-family="Helvetica,sans-Serif" font-size="14.00">4</text>
</g>
<!-- D -->
<g id="node4" class="node">
<title>D</title>
<ellipse fill="red" stroke="red" cx="222" cy="-18" rx="27" ry="18"/>
<text text-anchor="middle" x="222" y="-12.57" font-family="Helvetica,sans-Serif" font-weight="bold" font-size="14.00" fill="white">D</text>
</g>
<!-- C&#45;&gt;D -->
<g id="edge9" class="edge">
<title>C&#45;&gt;D</title>
<path fill="none" stroke="red" stroke-width="2" d="M140.42,-96.47C155.47,-81.81 178.95,-58.95 196.69,-41.67"/>
<polygon fill="red" stroke="red" stroke-width="2" points="198.98,-44.33 203.7,-34.85 194.09,-39.32 198.98,-44.33"/>
<text text-anchor="middle" x="173.25" y="-69.45" font-family="Helvetica,sans-Serif" font-size="14.00" fill="red">3</text>
</g>
<!-- A&#45;&gt;B -->
<g id="edge6" class="edge">
<title>A&#45;&gt;B</title>
<path fill="none" stroke="black" d="M201.46,-152.23C192.04,-156.81 180.44,-160.56 169.5,-159 123.46,-152.42 108.84,-149.39 72,-121 65.22,-115.77 58.16,-109.79 51.73,-104.1"/>
<polygon fill="black" stroke="black" points="54.33,-101.73 44.56,-97.63 49.65,-106.93 54.33,-101.73"/>
<text text-anchor="middle" x="124.5" y="-158.45" font-family="Helvetica,sans-Serif" font-size="14.00">6</text>
</g>
<!-- A&#45;&gt;C -->
<g id="edge4" class="edge">
<title>A&#45;&gt;C</title>
<path fill="none" stroke="red" stroke-width="2" d="M194.64,-141.54C186.44,-141.34 177.46,-140.42 169.5,-138 164.19,-136.39 158.88,-133.98 153.88,-131.25"/>
<polygon fill="red" stroke="red" stroke-width="2" points="155.84,-128.35 145.49,-126.12 152.19,-134.32 155.84,-128.35"/>
<text text-anchor="middle" x="173.25" y="-141.45" font-family="Helvetica,sans-Serif" font-size="14.00" fill="red">9</text>
</g>
<!-- D&#45;&gt;B -->
<g id="edge8" class="edge">
<title>D&#45;&gt;B</title>
<path fill="none" stroke="black" d="M195.02,-16.94C169.38,-16.77 129.48,-18.89 97.5,-31.25 80.68,-37.75 64.27,-49.4 51.62,-59.91"/>
<polygon fill="black" stroke="black" points="49.54,-57.08 44.27,-66.27 54.12,-62.37 49.54,-57.08"/>
<text text-anchor="middle" x="124.5" y="-33.45" font-family="Helvetica,sans-Serif" font-size="14.00">1</text>
</g>
<!-- D&#45;&gt;C -->
<g id="edge5" class="edge">
<title>D&#45;&gt;C</title>
<path fill="none" stroke="black" d="M197.88,-26.69C188.39,-31.01 177.73,-36.89 169.5,-44.25 165.85,-47.52 152.83,-67.51 141.89,-84.77"/>
<polygon fill="black" stroke="black" points="138.95,-82.86 136.58,-93.19 144.88,-86.59 138.95,-82.86"/>
<text text-anchor="middle" x="173.25" y="-46.45" font-family="Helvetica,sans-Serif" font-size="14.00">7</text>
</g>
</g>
</svg>
